# Blender v2.93.11 OBJ File: ''
# www.blender.org
mtllib IngredientMushroom.mtl
o IngredientMushroomMesh
v 0.000594 0.001107 -0.000441
v 0.000006 0.000507 -0.000829
v 0.000664 0.000507 -0.000605
v 0.000006 0.001107 -0.000646
v 0.000006 0.001718 -0.000570
v 0.000488 0.001718 -0.000364
v 0.000006 0.002205 -0.000488
v 0.000411 0.002200 -0.000288
v 0.000717 0.000078 -0.000676
v 0.001164 0.000072 -0.000006
v 0.000923 0.000507 -0.000006
v 0.000006 0.000066 -0.000981
v 0.000829 0.001107 -0.000006
v 0.000746 0.001718 -0.000006
v 0.000646 0.002176 -0.000000
v 0.000006 0.002282 0.000047
v 0.000006 0.002282 0.000047
v -0.000582 0.001107 -0.000441
v -0.000652 0.000507 -0.000605
v -0.000476 0.001718 -0.000364
v -0.000400 0.002200 -0.000288
v -0.000705 0.000078 -0.000676
v -0.001152 0.000072 -0.000006
v -0.000911 0.000507 -0.000006
v -0.000817 0.001107 -0.000006
v -0.000735 0.001718 -0.000006
v -0.000635 0.002176 -0.000000
v 0.000006 0.002282 0.000047
v 0.000006 0.002282 0.000047
v 0.001164 0.000072 -0.000006
v 0.000476 0.000002 -0.000006
v 0.000717 0.000078 0.000717
v 0.000476 0.000002 -0.000006
v 0.000006 0.000043 0.000970
v 0.000006 -0.000045 -0.000006
v 0.000594 0.001112 0.000476
v 0.000923 0.000507 -0.000006
v 0.000664 0.000507 0.000564
v 0.000829 0.001107 -0.000006
v 0.000488 0.001718 0.000388
v 0.000006 0.001718 0.000599
v 0.000417 0.002188 0.000282
v 0.000006 0.002217 0.000476
v 0.000646 0.002176 -0.000000
v 0.000746 0.001718 -0.000006
v 0.000006 0.001112 0.000699
v 0.000717 0.000078 0.000717
v 0.000006 0.000043 0.000970
v 0.000006 0.000507 0.000829
v 0.001164 0.000072 -0.000006
v 0.000006 0.002217 0.000476
v 0.000006 0.002282 0.000047
v -0.000652 0.000507 0.000564
v -0.000705 0.000078 0.000717
v -0.000405 0.002188 0.000282
v -0.000476 0.001718 0.000388
v -0.000635 0.002176 -0.000000
v -0.000735 0.001718 -0.000006
v -0.000911 0.000507 -0.000006
v -0.000582 0.001112 0.000476
v -0.000817 0.001107 -0.000006
v -0.001152 0.000072 -0.000006
v 0.000006 0.002217 0.000476
v 0.000006 0.002282 0.000047
v 0.000476 0.000002 -0.000006
v 0.001164 0.000072 -0.000006
v 0.000717 0.000078 -0.000676
v 0.000006 0.000066 -0.000981
v 0.000476 0.000002 -0.000006
v 0.000006 -0.000045 -0.000006
v 0.000476 0.000002 -0.000006
v -0.000464 0.000002 -0.000006
v -0.000705 0.000078 -0.000676
v -0.000464 0.000002 -0.000006
v -0.000464 0.000002 -0.000006
v -0.001152 0.000072 -0.000006
v 0.001111 0.002370 0.002568
v 0.001769 0.003028 0.001757
v 0.002016 0.002423 0.002004
v 0.001011 0.002969 0.002333
v 0.000829 0.003434 0.001904
v 0.001510 0.003434 0.001493
v 0.000006 0.002905 0.002568
v 0.000006 0.003434 0.002039
v 0.000006 0.002294 0.002791
v 0.000006 0.004256 0.001393
v 0.000564 0.004215 0.001299
v 0.000435 0.005232 0.000834
v 0.001028 0.004174 0.001017
v 0.000723 0.005108 0.000711
v 0.000006 0.005291 0.000899
v 0.000852 0.005232 0.000417
v 0.000388 0.005790 0.000376
v 0.000417 0.005849 -0.000006
v 0.000911 0.005291 -0.000006
v 0.000006 0.005849 0.000400
v 0.000852 0.005232 -0.000429
v 0.000388 0.005790 -0.000388
v 0.000435 0.005232 -0.000846
v 0.000723 0.005108 -0.000723
v 0.000006 0.005849 -0.000411
v 0.000006 0.005291 -0.000911
v 0.000417 0.005849 -0.000006
v 0.000006 0.005966 -0.000006
v 0.001028 0.004174 -0.001028
v 0.000564 0.004215 -0.001310
v 0.000829 0.003434 -0.001916
v 0.001510 0.003434 -0.001504
v 0.000006 0.004256 -0.001404
v 0.000006 0.003434 -0.002051
v 0.000006 0.002905 -0.002580
v 0.001011 0.002969 -0.002345
v 0.001111 0.002370 -0.002580
v 0.001769 0.003028 -0.001769
v 0.002016 0.002423 -0.002016
v 0.000006 0.002294 -0.002803
v 0.002597 0.002370 -0.001122
v 0.002345 0.002969 -0.001005
v 0.001922 0.003434 -0.000823
v 0.002580 0.002946 -0.000006
v 0.002057 0.003434 -0.000006
v 0.002809 0.002305 -0.000006
v 0.001404 0.004245 -0.000006
v 0.001310 0.004215 -0.000564
v 0.001922 0.003434 0.000811
v 0.001310 0.004215 0.000552
v 0.002597 0.002370 0.001111
v 0.002345 0.002969 0.000993
v 0.002339 0.002217 0.001017
v 0.001828 0.002264 0.001810
v 0.001023 0.002217 0.002309
v 0.000006 0.002147 0.002515
v 0.002527 0.002153 -0.000006
v -0.001011 0.002217 0.002309
v -0.001099 0.002370 0.002568
v -0.000999 0.002969 0.002333
v -0.001757 0.003028 0.001757
v -0.002004 0.002423 0.002004
v -0.000817 0.003434 0.001904
v -0.001499 0.003434 0.001493
v -0.000552 0.004215 0.001299
v -0.000423 0.005232 0.000834
v -0.001017 0.004174 0.001017
v -0.000711 0.005108 0.000711
v -0.000840 0.005232 0.000417
v -0.000376 0.005790 0.000376
v -0.000405 0.005849 -0.000006
v -0.000899 0.005291 -0.000006
v 0.000006 0.005849 0.000400
v 0.000006 0.005966 -0.000006
v -0.000840 0.005232 -0.000429
v -0.000376 0.005790 -0.000388
v -0.000423 0.005232 -0.000846
v -0.000711 0.005108 -0.000723
v 0.000006 0.005849 -0.000411
v 0.000006 0.005291 -0.000911
v -0.001017 0.004174 -0.001028
v -0.000552 0.004215 -0.001310
v -0.000817 0.003434 -0.001916
v -0.001499 0.003434 -0.001504
v 0.000006 0.004256 -0.001404
v 0.000006 0.003434 -0.002051
v 0.000006 0.002905 -0.002580
v -0.000999 0.002969 -0.002345
v -0.001099 0.002370 -0.002580
v -0.001757 0.003028 -0.001769
v -0.002004 0.002423 -0.002016
v 0.000006 0.002294 -0.002803
v -0.002586 0.002370 -0.001122
v -0.002333 0.002969 -0.001005
v -0.001910 0.003434 -0.000823
v -0.002568 0.002946 -0.000006
v -0.002045 0.003434 -0.000006
v -0.002797 0.002305 -0.000006
v -0.001393 0.004245 -0.000006
v -0.001299 0.004215 -0.000564
v -0.001910 0.003434 0.000811
v -0.001299 0.004215 0.000552
v -0.002586 0.002370 0.001111
v -0.002333 0.002969 0.000993
v -0.002327 0.002217 0.001017
v -0.001816 0.002264 0.001810
v -0.002515 0.002153 -0.000006
v -0.002327 0.002217 0.001017
v -0.002327 0.002217 -0.001028
v -0.001816 0.002264 -0.001822
v -0.001011 0.002217 -0.002321
v 0.000006 0.002147 -0.002527
v 0.000417 0.005849 -0.000006
v 0.000006 0.005849 0.000400
v 0.000006 0.005966 -0.000006
v 0.001023 0.002217 -0.002321
v 0.000006 0.001988 -0.000006
v 0.001828 0.002264 -0.001822
v 0.000006 0.002147 -0.002527
v 0.002339 0.002217 -0.001028
v 0.002527 0.002153 -0.000006
v 0.002339 0.002217 0.001017
v 0.001828 0.002264 0.001810
v 0.001023 0.002217 0.002309
v 0.000006 0.002147 0.002515
v 0.000006 0.001988 -0.000006
v -0.001011 0.002217 -0.002321
v -0.001816 0.002264 -0.001822
v -0.001011 0.002217 0.002309
v -0.001816 0.002264 0.001810
v -0.002327 0.002217 0.001017
v -0.002515 0.002153 -0.000006
v -0.002327 0.002217 -0.001028
v 0.000006 0.002147 -0.002527
v 0.001023 0.002217 -0.002321
v 0.001828 0.002264 -0.001822
v 0.002339 0.002217 -0.001028
v 0.002527 0.002153 -0.000006
v -0.001152 0.000072 -0.000006
v -0.000705 0.000078 0.000717
v -0.000464 0.000002 -0.000006
v -0.000464 0.000002 -0.000006
v 0.000006 0.000043 0.000970
v 0.000006 -0.000045 -0.000006
v 0.000006 0.005849 -0.000411
v -0.000405 0.005849 -0.000006
v -0.000376 0.005790 -0.000388
v 0.000006 0.005966 -0.000006
v -0.000405 0.005849 -0.000006
vt 0.845610 0.124240
vt 0.726024 0.124240
vt 0.834037 0.224537
vt 0.726024 0.224537
vt 0.726024 0.324835
vt 0.814749 0.324835
vt 0.726024 0.401987
vt 0.799319 0.401987
vt 0.853325 0.050946
vt 0.934334 0.050946
vt 0.891901 0.124240
vt 0.726024 0.050946
vt 0.876470 0.224537
vt 0.861040 0.324835
vt 0.841752 0.401987
vt 0.726024 0.421274
vt 0.726024 0.421274
vt 0.618012 0.224537
vt 0.606439 0.124240
vt 0.641157 0.324835
vt 0.656588 0.401987
vt 0.598724 0.050946
vt 0.521572 0.050946
vt 0.560148 0.124240
vt 0.579436 0.224537
vt 0.594866 0.324835
vt 0.610296 0.401987
vt 0.726024 0.421274
vt 0.726024 0.421274
vt 0.853325 0.050946
vt 0.810891 0.035515
vt 0.934334 0.050946
vt 0.726024 0.047088
vt 0.810891 0.035515
vt 0.726024 0.031658
vt 0.845610 0.124240
vt 0.891901 0.124240
vt 0.834037 0.224537
vt 0.876470 0.224537
vt 0.814749 0.324835
vt 0.726024 0.324835
vt 0.799319 0.401987
vt 0.726024 0.409702
vt 0.841752 0.401987
vt 0.861040 0.324835
vt 0.726024 0.224537
vt 0.853325 0.050946
vt 0.726024 0.047088
vt 0.726024 0.124240
vt 0.934334 0.050946
vt 0.726024 0.409702
vt 0.726024 0.421274
vt 0.606439 0.124240
vt 0.598724 0.050946
vt 0.652730 0.401987
vt 0.641157 0.324835
vt 0.610296 0.401987
vt 0.594866 0.324835
vt 0.560148 0.124240
vt 0.618012 0.224537
vt 0.579436 0.224537
vt 0.521572 0.050946
vt 0.726024 0.409702
vt 0.726024 0.421274
vt 0.853325 0.050946
vt 0.934334 0.050946
vt 0.810891 0.035515
vt 0.810891 0.035515
vt 0.726024 0.050946
vt 0.810891 0.035515
vt 0.726024 0.031658
vt 0.645015 0.035515
vt 0.645015 0.035515
vt 0.598724 0.050946
vt 0.521572 0.050946
vt 0.645015 0.035515
vt 0.618012 0.513857
vt 0.618012 0.591009
vt 0.560148 0.502284
vt 0.560148 0.583293
vt 0.560148 0.641157
vt 0.618012 0.641157
vt 0.498426 0.571721
vt 0.498426 0.641157
vt 0.498426 0.498426
vt 0.498426 0.745312
vt 0.560148 0.737597
vt 0.567863 0.868755
vt 0.618012 0.733739
vt 0.618012 0.853325
vt 0.498426 0.876470
vt 0.668160 0.868755
vt 0.618012 0.938192
vt 0.737597 0.949765
vt 0.737597 0.876470
vt 0.498426 0.949765
vt 0.810891 0.868755
vt 0.857183 0.938192
vt 0.903474 0.868755
vt 0.861040 0.853325
vt 0.980626 0.949765
vt 0.980626 0.876470
vt 0.737597 0.949765
vt 0.737597 0.961338
vt 0.861040 0.733739
vt 0.915046 0.737597
vt 0.915046 0.641157
vt 0.861040 0.641157
vt 0.980626 0.745312
vt 0.980626 0.641157
vt 0.980626 0.571721
vt 0.915046 0.583293
vt 0.915046 0.502284
vt 0.861040 0.591009
vt 0.861040 0.513857
vt 0.980626 0.498426
vt 0.803176 0.502284
vt 0.799319 0.583293
vt 0.799319 0.641157
vt 0.737597 0.579436
vt 0.737597 0.641157
vt 0.737597 0.498426
vt 0.737597 0.745312
vt 0.799319 0.737597
vt 0.675876 0.641157
vt 0.675876 0.737597
vt 0.675876 0.502284
vt 0.675876 0.583293
vt 0.675876 0.486854
vt 0.618012 0.494569
vt 0.560148 0.486854
vt 0.498426 0.479138
vt 0.737597 0.479138
vt 0.432847 0.486854
vt 0.432847 0.502284
vt 0.432847 0.583293
vt 0.374983 0.591009
vt 0.374983 0.513857
vt 0.432847 0.641157
vt 0.374983 0.641157
vt 0.432847 0.737597
vt 0.425132 0.868755
vt 0.374983 0.733739
vt 0.374983 0.853325
vt 0.324835 0.868755
vt 0.374983 0.938192
vt 0.255398 0.949765
vt 0.255398 0.876470
vt 0.498426 0.949765
vt 0.737597 0.961338
vt 0.182104 0.868755
vt 0.135813 0.938192
vt 0.081806 0.868755
vt 0.135813 0.853325
vt 0.008512 0.949765
vt 0.008512 0.876470
vt 0.135813 0.733739
vt 0.070234 0.737597
vt 0.070234 0.641157
vt 0.135813 0.641157
vt 0.008512 0.745312
vt 0.008512 0.641157
vt 0.008512 0.571721
vt 0.070234 0.583293
vt 0.070234 0.502284
vt 0.135813 0.591009
vt 0.135813 0.513857
vt 0.008512 0.498426
vt 0.189819 0.502284
vt 0.189819 0.583293
vt 0.189819 0.641157
vt 0.255398 0.579436
vt 0.255398 0.641157
vt 0.255398 0.509999
vt 0.255398 0.745312
vt 0.189819 0.737597
vt 0.313262 0.641157
vt 0.313262 0.737597
vt 0.313262 0.502284
vt 0.313262 0.583293
vt 0.313262 0.486854
vt 0.374983 0.494569
vt 0.313262 0.486854
vt 0.255398 0.490711
vt 0.189819 0.486854
vt 0.135813 0.494569
vt 0.077949 0.486854
vt 0.008512 0.479138
vt 0.737597 0.961338
vt 0.498426 0.949765
vt 0.737597 0.949765
vt 0.467566 0.378841
vt 0.266971 0.236110
vt 0.398129 0.440562
vt 0.301689 0.471423
vt 0.502284 0.301689
vt 0.502284 0.201392
vt 0.475281 0.108809
vt 0.413559 0.043230
vt 0.332550 0.004654
vt 0.236110 0.004654
vt 0.209107 0.467566
vt 0.266971 0.236110
vt 0.124240 0.432847
vt 0.139670 0.031658
vt 0.070234 0.093379
vt 0.035515 0.174389
vt 0.031658 0.270828
vt 0.062518 0.367268
vt 0.980626 0.479138
vt 0.915046 0.486854
vt 0.861040 0.494569
vt 0.803176 0.486854
vt 0.737597 0.479138
vt 0.645015 0.035515
vt 0.598724 0.050946
vt 0.521572 0.050946
vt 0.726024 0.047088
vt 0.645015 0.035515
vt 0.726024 0.031658
vt 0.783888 0.972910
vt 0.714452 0.988341
vt 0.980626 0.949765
vt 0.714452 0.988341
vt 0.737597 0.961338
vn 0.6824 0.2698 -0.6793
vn 0.0159 0.2698 -0.9628
vn 0.6825 0.1746 -0.7098
vn 0.0158 0.2063 -0.9784
vn 0.0159 0.1746 -0.9845
vn 0.0159 0.7459 -0.6658
vn 0.5872 0.5237 -0.6171
vn 0.6825 0.2698 -0.6793
vn 0.9364 0.3333 -0.1099
vn 0.9681 0.2381 -0.0778
vn 0.0159 0.2381 -0.9711
vn 0.9899 0.1414 -0.0000
vn 0.9851 0.1720 -0.0000
vn 0.6417 0.7669 0.0000
vn 0.0159 0.9681 0.2500
vn -0.6190 0.1746 -0.7658
vn -0.6189 0.2698 -0.7376
vn -0.5237 0.5237 -0.6719
vn -0.6190 0.2698 -0.7376
vn -0.9046 0.3650 -0.2199
vn -0.9364 0.2698 -0.2244
vn -0.9681 0.1746 -0.1795
vn -0.9681 0.2063 -0.1420
vn -0.5872 0.7777 -0.2245
vn 0.0159 0.9681 0.2499
vn 0.1104 -0.9939 -0.0000
vn 0.0159 -0.9999 0.0000
vn 0.6825 0.2381 0.6911
vn 0.7142 0.1746 0.6778
vn 0.9900 0.1414 -0.0000
vn 0.6825 0.1746 0.7098
vn 0.0159 0.2063 0.9784
vn 0.5872 0.5555 0.5887
vn 0.0159 0.7460 0.6658
vn 0.6417 0.7670 0.0000
vn 0.0159 0.1746 0.9845
vn 0.6507 0.3333 0.6823
vn 0.0159 0.3015 0.9533
vn 0.0159 0.2381 0.9711
vn 0.9364 0.3333 -0.1100
vn 0.0159 0.7459 0.6658
vn -0.6190 0.2381 0.7485
vn -0.5872 0.3333 0.7376
vn -0.5237 0.5555 0.6459
vn -0.6190 0.1746 0.7658
vn -0.9681 0.2063 -0.1419
vn -0.6507 0.1746 0.7390
vn -0.9681 0.1746 -0.1796
vn -0.9047 0.3650 -0.2199
vn -0.0476 -0.9989 -0.0000
vn 0.7142 -0.3333 0.6155
vn 0.6190 0.5555 0.5553
vn 0.4285 -0.3650 0.8265
vn 0.3650 0.5555 0.7471
vn 0.3015 0.6507 0.6969
vn 0.5555 0.6507 0.5177
vn 0.0159 0.5237 0.8517
vn 0.0159 0.6507 0.7591
vn 0.0159 -0.3968 0.9178
vn 0.0159 0.5238 0.8517
vn 0.3650 0.5237 0.7697
vn 0.4285 0.5237 0.7362
vn 0.6507 0.5237 0.5498
vn 0.6825 0.4603 0.5678
vn 0.8094 0.5237 0.2656
vn 0.5237 0.7459 0.4114
vn 0.5511 0.8345 -0.0000
vn 0.8575 0.5145 -0.0000
vn 0.0159 0.8412 0.5405
vn 0.8094 0.5237 -0.2656
vn 0.5238 0.7459 -0.4114
vn 0.4285 0.5237 -0.7362
vn 0.6825 0.4603 -0.5678
vn 0.0159 0.8412 -0.5405
vn 0.0158 0.5237 -0.8517
vn 0.0158 0.9999 -0.0000
vn 0.6507 0.5237 -0.5498
vn 0.3650 0.5237 -0.7697
vn 0.3015 0.6507 -0.6969
vn 0.5555 0.6507 -0.5177
vn 0.0159 0.5237 -0.8517
vn 0.0159 0.6507 -0.7592
vn 0.3650 0.5555 -0.7471
vn 0.4285 -0.3650 -0.8265
vn 0.6190 0.5555 -0.5553
vn 0.7142 -0.3333 -0.6155
vn 0.0159 -0.3968 -0.9178
vn 0.9046 -0.3650 -0.2199
vn 0.8094 0.5555 -0.1904
vn 0.7459 0.6507 -0.1420
vn 0.8412 0.5238 -0.1347
vn 0.7669 0.6417 0.0000
vn 0.9317 -0.3632 0.0000
vn 0.8711 0.4910 0.0000
vn 0.7459 0.6507 0.1420
vn 0.8412 0.5237 0.1347
vn 0.9047 -0.3650 0.2199
vn 0.8094 0.5555 0.1904
vn 0.2685 -0.9633 0.0000
vn 0.2605 -0.9655 -0.0000
vn 0.1720 -0.9851 -0.0000
vn 0.2974 -0.9548 0.0000
vn -0.1414 -0.9900 -0.0000
vn -0.3650 -0.3651 0.8564
vn -0.3015 0.5555 0.7749
vn -0.5555 0.5555 0.6188
vn -0.6507 -0.3333 0.6823
vn -0.2381 0.6507 0.7210
vn -0.4920 0.6507 0.5784
vn -0.3016 0.5238 0.7967
vn -0.3650 0.5237 0.7697
vn -0.5872 0.5238 0.6171
vn -0.6190 0.4603 0.6364
vn -0.7459 0.5237 0.4114
vn -0.4603 0.7459 0.4814
vn -0.4920 0.8412 -0.2244
vn -0.8094 0.5238 -0.2656
vn 0.0159 0.8412 0.5406
vn 0.0159 0.9999 -0.0000
vn -0.7459 0.5237 -0.4114
vn -0.4603 0.7459 -0.4814
vn -0.3650 0.5237 -0.7697
vn -0.6190 0.4603 -0.6364
vn -0.5872 0.5238 -0.6171
vn -0.3016 0.5238 -0.7967
vn -0.2381 0.6507 -0.7210
vn -0.4920 0.6507 -0.5784
vn 0.0159 0.5238 -0.8517
vn -0.3015 0.5555 -0.7749
vn -0.3650 -0.3650 -0.8564
vn -0.5555 0.5555 -0.6188
vn -0.6507 -0.3333 -0.6823
vn -0.8412 -0.3650 -0.3990
vn -0.7459 0.5555 -0.3674
vn -0.6825 0.6507 -0.3329
vn -0.8094 0.5555 -0.1904
vn -0.7142 0.6507 -0.2579
vn -0.9047 -0.3650 -0.2199
vn -0.8412 0.5237 -0.1347
vn -0.7777 0.5237 -0.3477
vn -0.6825 0.6507 0.3329
vn -0.7777 0.5237 0.3477
vn -0.8412 -0.3650 0.3990
vn -0.7459 0.5555 0.3674
vn -0.2316 -0.9728 -0.0000
vn -0.2021 -0.9794 0.0000
vn -0.2381 -0.9681 -0.0777
vn 0.0158 -0.9999 -0.0000
vn 0.5238 0.7459 0.4114
vn 0.0791 -0.9969 0.0000
vn -0.1414 -0.9899 0.0000
vn -0.0159 -0.9999 -0.0000
vn 0.0158 0.8412 -0.5406
vn -0.4920 0.8412 -0.2245
usemtl Default-Diffuse
s 1
f 3/1/1 2/2/2 1/3/3
f 2/2/2 4/4/4 1/3/3
f 1/3/3 4/4/4 5/5/5
f 6/6/3 1/3/3 5/5/5
f 6/6/3 5/5/5 7/7/6
f 8/8/7 6/6/3 7/7/6
f 3/1/1 9/9/8 2/2/2
f 9/9/8 3/1/1 10/10/9
f 3/1/1 11/11/10 10/10/9
f 3/1/1 1/3/3 11/11/10
f 9/9/8 12/12/11 2/2/2
f 1/3/3 13/13/12 11/11/10
f 6/6/3 14/14/13 1/3/3
f 14/14/13 13/13/12 1/3/3
f 14/14/13 6/6/3 15/15/14
f 6/6/3 8/8/7 15/15/14
f 15/15/14 8/8/7 16/16/15
f 8/8/7 7/7/6 17/17/15
f 4/4/4 2/2/2 18/18/16
f 4/4/4 18/18/16 5/5/5
f 2/2/2 19/19/17 18/18/16
f 5/5/5 20/20/16 7/7/6
f 18/18/16 20/20/16 5/5/5
f 20/20/16 21/21/18 7/7/6
f 12/12/11 22/22/19 2/2/2
f 22/22/19 19/19/17 2/2/2
f 19/19/17 22/22/19 23/23/20
f 24/24/21 19/19/17 23/23/20
f 18/18/16 19/19/17 24/24/21
f 25/25/22 18/18/16 24/24/21
f 18/18/16 25/25/22 20/20/16
f 25/25/22 26/26/23 20/20/16
f 21/21/18 20/20/16 27/27/24
f 20/20/16 26/26/23 27/27/24
f 21/21/18 27/27/24 28/28/25
f 7/7/6 21/21/18 29/29/25
f 32/30/26 31/31/26 30/32/26
f 32/30/26 34/33/27 33/34/26
f 34/33/27 35/35/27 33/34/26
f 38/36/28 37/37/10 36/38/29
f 37/37/10 39/39/30 36/38/29
f 40/40/31 36/38/29 39/39/30
f 36/38/29 40/40/31 41/41/32
f 40/40/31 42/42/33 41/41/32
f 42/42/33 43/43/34 41/41/32
f 44/44/35 42/42/33 40/40/31
f 45/45/13 44/44/35 40/40/31
f 45/45/13 40/40/31 39/39/30
f 46/46/36 36/38/29 41/41/32
f 38/36/28 47/47/37 37/37/10
f 47/47/37 38/36/28 48/48/38
f 38/36/28 49/49/39 48/48/38
f 38/36/28 36/38/29 49/49/39
f 36/38/29 46/46/36 49/49/39
f 47/47/37 50/50/40 37/37/10
f 42/42/33 44/44/35 51/51/41
f 44/44/14 52/52/25 43/43/41
f 49/49/39 53/53/42 48/48/38
f 53/53/42 54/54/43 48/48/38
f 43/43/34 55/55/44 41/41/32
f 55/55/44 56/56/45 41/41/32
f 55/55/44 57/57/24 56/56/45
f 57/57/24 58/58/46 56/56/45
f 54/54/43 53/53/42 59/59/21
f 59/59/21 53/53/42 60/60/47
f 46/46/36 60/60/47 49/49/39
f 60/60/47 53/53/42 49/49/39
f 60/60/47 56/56/45 58/58/46
f 61/61/48 59/59/21 60/60/47
f 61/61/48 60/60/47 58/58/46
f 62/62/49 54/54/43 59/59/21
f 56/56/45 60/60/47 41/41/32
f 60/60/47 46/46/36 41/41/32
f 57/57/24 55/55/44 63/63/41
f 64/64/15 57/57/24 43/43/41
f 67/65/26 66/66/26 65/67/26
f 67/65/26 69/68/26 68/69/27
f 71/70/26 70/71/27 68/69/27
f 70/71/27 72/72/50 68/69/27
f 74/73/50 73/74/50 68/69/27
f 76/75/50 73/74/50 75/76/50
f 79/77/51 78/78/52 77/79/53
f 78/78/52 80/80/54 77/79/53
f 81/81/55 80/80/54 78/78/52
f 82/82/56 81/81/55 78/78/52
f 83/83/57 80/80/54 81/81/55
f 77/79/53 80/80/54 83/83/57
f 84/84/58 83/83/57 81/81/55
f 85/85/59 77/79/53 83/83/57
f 84/84/58 81/81/55 86/86/60
f 81/81/55 87/87/61 86/86/60
f 86/86/60 87/87/61 88/88/62
f 88/88/62 87/87/61 89/89/63
f 82/82/56 89/89/63 81/81/55
f 89/89/63 87/87/61 81/81/55
f 90/90/64 88/88/62 89/89/63
f 91/91/57 86/86/60 88/88/62
f 90/90/64 92/92/65 88/88/62
f 90/90/64 89/89/63 92/92/65
f 92/92/65 93/93/66 88/88/62
f 94/94/67 93/93/66 92/92/65
f 95/95/68 94/94/67 92/92/65
f 91/91/57 88/88/62 96/96/69
f 88/88/62 93/93/66 96/96/69
f 95/95/68 97/97/70 94/94/67
f 97/97/70 98/98/71 94/94/67
f 99/99/72 98/98/71 97/97/70
f 100/100/73 99/99/72 97/97/70
f 101/101/74 98/98/71 99/99/72
f 102/102/75 101/101/74 99/99/72
f 103/103/67 98/98/71 101/101/74
f 104/104/76 103/103/67 101/101/74
f 100/100/73 105/105/77 99/99/72
f 100/100/73 97/97/70 105/105/77
f 105/105/77 106/106/78 99/99/72
f 107/107/79 106/106/78 105/105/77
f 108/108/80 107/107/79 105/105/77
f 109/109/81 106/106/78 107/107/79
f 102/102/75 99/99/72 109/109/81
f 99/99/72 106/106/78 109/109/81
f 110/110/82 109/109/81 107/107/79
f 110/110/82 107/107/79 111/111/81
f 107/107/79 112/112/83 111/111/81
f 111/111/81 112/112/83 113/113/84
f 113/113/84 112/112/83 114/114/85
f 108/108/80 114/114/85 107/107/79
f 114/114/85 112/112/83 107/107/79
f 115/115/86 113/113/84 114/114/85
f 116/116/87 111/111/81 113/113/84
f 115/115/86 114/114/85 117/117/88
f 114/114/85 118/118/89 117/117/88
f 108/108/80 119/119/90 114/114/85
f 119/119/90 118/118/89 114/114/85
f 108/108/80 105/105/77 119/119/90
f 120/120/91 118/118/89 119/119/90
f 117/117/88 118/118/89 120/120/91
f 121/121/92 120/120/91 119/119/90
f 122/122/93 117/117/88 120/120/91
f 121/121/92 119/119/90 123/123/94
f 119/119/90 124/124/91 123/123/94
f 123/123/94 124/124/91 97/97/70
f 97/97/70 124/124/91 105/105/77
f 105/105/77 124/124/91 119/119/90
f 95/95/68 123/123/94 97/97/70
f 121/121/92 123/123/94 125/125/95
f 121/121/92 125/125/95 120/120/91
f 123/123/94 126/126/96 125/125/95
f 125/125/95 126/126/96 89/89/63
f 89/89/63 126/126/96 92/92/65
f 95/95/68 92/92/65 123/123/94
f 92/92/65 126/126/96 123/123/94
f 82/82/56 125/125/95 89/89/63
f 122/122/93 120/120/91 127/127/97
f 120/120/91 128/128/98 127/127/97
f 125/125/95 128/128/98 120/120/91
f 127/127/97 128/128/98 78/78/52
f 82/82/56 78/78/52 125/125/95
f 78/78/52 128/128/98 125/125/95
f 79/77/51 127/127/97 78/78/52
f 129/129/99 127/127/97 79/77/51
f 130/130/100 129/129/99 79/77/51
f 130/130/100 79/77/51 77/79/53
f 131/131/101 130/130/100 77/79/53
f 131/131/101 77/79/53 85/85/59
f 132/132/27 131/131/101 85/85/59
f 127/127/97 129/129/99 133/133/102
f 122/122/93 127/127/97 133/133/102
f 134/134/103 132/132/27 85/85/59
f 135/135/104 134/134/103 85/85/59
f 135/135/104 85/85/59 83/83/57
f 136/136/105 135/135/104 83/83/57
f 136/136/105 137/137/106 135/135/104
f 137/137/106 138/138/107 135/135/104
f 136/136/105 139/139/108 137/137/106
f 136/136/105 83/83/57 139/139/108
f 139/139/108 140/140/109 137/137/106
f 83/83/57 84/84/58 139/139/108
f 139/139/108 84/84/58 86/86/60
f 141/141/110 139/139/108 86/86/60
f 141/141/110 86/86/60 142/142/111
f 141/141/110 142/142/111 143/143/112
f 141/141/110 143/143/112 139/139/108
f 143/143/112 140/140/109 139/139/108
f 142/142/111 144/144/113 143/143/112
f 86/86/60 91/91/57 142/142/111
f 145/145/114 144/144/113 142/142/111
f 143/143/112 144/144/113 145/145/114
f 146/146/115 145/145/114 142/142/111
f 146/146/115 147/147/116 145/145/114
f 147/147/116 148/148/117 145/145/114
f 146/146/115 149/149/118 147/147/116
f 149/149/118 150/150/119 147/147/116
f 146/146/115 142/142/111 96/96/69
f 142/142/111 91/91/57 96/96/69
f 151/151/120 148/148/117 147/147/116
f 152/152/121 151/151/120 147/147/116
f 152/152/121 153/153/122 151/151/120
f 153/153/122 154/154/123 151/151/120
f 152/152/121 155/155/74 153/153/122
f 155/155/74 156/156/81 153/153/122
f 157/157/124 154/154/123 153/153/122
f 151/151/120 154/154/123 157/157/124
f 158/158/125 157/157/124 153/153/122
f 158/158/125 159/159/126 157/157/124
f 159/159/126 160/160/127 157/157/124
f 158/158/125 161/161/128 159/159/126
f 158/158/125 153/153/122 161/161/128
f 153/153/122 156/156/81 161/161/128
f 161/161/128 162/162/82 159/159/126
f 159/159/126 162/162/82 163/163/81
f 164/164/129 159/159/126 163/163/81
f 164/164/129 163/163/81 165/165/130
f 164/164/129 165/165/130 166/166/131
f 164/164/129 166/166/131 159/159/126
f 166/166/131 160/160/127 159/159/126
f 165/165/130 167/167/132 166/166/131
f 163/163/81 168/168/87 165/165/130
f 166/166/131 167/167/132 169/169/133
f 170/170/134 166/166/131 169/169/133
f 170/170/134 171/171/135 166/166/131
f 171/171/135 160/160/127 166/166/131
f 157/157/124 160/160/127 171/171/135
f 170/170/134 172/172/136 171/171/135
f 170/170/134 169/169/133 172/172/136
f 172/172/136 173/173/137 171/171/135
f 169/169/133 174/174/138 172/172/136
f 171/171/135 173/173/137 175/175/139
f 176/176/140 171/171/135 175/175/139
f 176/176/140 175/175/139 151/151/120
f 176/176/140 151/151/120 157/157/124
f 176/176/140 157/157/124 171/171/135
f 175/175/139 148/148/117 151/151/120
f 175/175/139 173/173/137 177/177/141
f 177/177/141 173/173/137 172/172/136
f 178/178/142 175/175/139 177/177/141
f 178/178/142 177/177/141 143/143/112
f 178/178/142 143/143/112 145/145/114
f 178/178/142 145/145/114 175/175/139
f 145/145/114 148/148/117 175/175/139
f 177/177/141 140/140/109 143/143/112
f 172/172/136 174/174/138 179/179/143
f 180/180/144 172/172/136 179/179/143
f 180/180/144 177/177/141 172/172/136
f 180/180/144 179/179/143 137/137/106
f 180/180/144 137/137/106 177/177/141
f 137/137/106 140/140/109 177/177/141
f 179/179/143 138/138/107 137/137/106
f 179/179/143 181/181/145 138/138/107
f 181/181/145 182/182/146 138/138/107
f 138/138/107 182/182/146 135/135/104
f 182/182/146 134/134/103 135/135/104
f 184/183/145 179/179/143 183/184/147
f 179/179/143 174/174/138 183/184/147
f 183/184/147 174/174/138 185/185/145
f 174/174/138 169/169/133 185/185/145
f 185/185/145 169/169/133 186/186/146
f 169/169/133 167/167/132 186/186/146
f 186/186/146 167/167/132 187/187/103
f 167/167/132 165/165/130 187/187/103
f 187/187/103 165/165/130 188/188/148
f 165/165/130 168/168/87 188/188/148
f 191/189/76 190/190/69 189/191/67
f 190/190/69 93/93/149 189/191/67
f 194/192/100 193/193/150 192/194/101
f 195/195/27 192/194/101 193/193/150
f 194/192/100 196/196/99 193/193/150
f 197/197/102 193/193/150 196/196/99
f 197/197/102 198/198/99 193/193/150
f 199/199/100 193/193/150 198/198/99
f 199/199/100 200/200/101 193/193/150
f 201/201/27 193/193/150 200/200/101
f 203/202/151 195/195/27 202/203/152
f 202/203/152 204/204/146 203/202/151
f 202/203/152 201/201/27 205/205/151
f 205/205/151 206/206/146 202/203/152
f 202/203/152 206/206/146 207/207/145
f 207/207/145 208/208/147 202/203/152
f 202/203/152 208/208/147 209/209/145
f 209/209/145 204/204/146 202/203/152
f 116/116/87 113/113/84 210/210/27
f 113/113/84 211/211/101 210/210/27
f 113/113/84 115/115/86 211/211/101
f 115/115/86 212/212/100 211/211/101
f 115/115/86 117/117/88 212/212/100
f 117/117/88 213/213/99 212/212/100
f 117/117/88 122/122/93 213/213/99
f 122/122/93 214/214/102 213/213/99
f 217/215/50 216/216/50 215/217/50
f 219/218/27 216/216/50 218/219/50
f 220/220/27 219/218/27 218/219/50
f 223/221/121 222/222/116 221/223/153
f 225/224/154 224/225/119 101/101/74
