# This file uses centimeters as units for non-parametric coordinates.

mtllib Circular_window.mtl
g default
v 0.000000 0.000000 -0.654504
v -62.041004 -13.187268 -0.654322
v -63.427044 -0.000029 -0.654322
v -62.041004 13.187196 -0.654322
v -57.943489 25.798098 -0.654322
v -51.313534 37.281479 -0.654322
v -42.440956 47.135506 -0.654322
v -31.713486 54.929440 -0.654322
v -19.599989 60.322716 -0.654322
v -6.629869 63.079594 -0.654322
v 6.630000 63.079594 -0.654322
v 19.600113 60.322716 -0.654322
v 31.713615 54.929440 -0.654322
v 42.441090 47.135506 -0.654322
v 51.313663 37.281479 -0.654322
v 57.943604 25.798098 -0.654322
v 62.041126 13.187196 -0.654322
v 63.427158 -0.000029 -0.654322
v 62.041191 -13.187268 -0.654322
v 57.943661 -25.798170 -0.654322
v 51.313721 -37.281567 -0.654322
v 42.441116 -47.135563 -0.654322
v 31.713659 -54.929539 -0.654322
v 19.600155 -60.322815 -0.654322
v 6.630028 -63.079708 -0.654322
v -6.629855 -63.079708 -0.654322
v -19.599974 -60.322815 -0.654322
v -31.713486 -54.929539 -0.654322
v -42.440956 -47.135578 -0.654322
v -51.313534 -37.281567 -0.654322
v -57.943489 -25.798170 -0.654322
v 0.000000 0.000000 -0.960854
v -62.041004 -13.187268 -0.960671
v -63.427044 -0.000029 -0.960671
v -62.041004 13.187196 -0.960671
v -57.943489 25.798098 -0.960671
v -51.313534 37.281479 -0.960671
v -42.440956 47.135506 -0.960671
v -31.713486 54.929440 -0.960671
v -19.599989 60.322716 -0.960671
v -6.629869 63.079594 -0.960671
v 6.630000 63.079594 -0.960671
v 19.600113 60.322716 -0.960671
v 31.713615 54.929440 -0.960671
v 42.441090 47.135506 -0.960671
v 51.313663 37.281479 -0.960671
v 57.943604 25.798098 -0.960671
v 62.041126 13.187196 -0.960671
v 63.427158 -0.000029 -0.960671
v 62.041191 -13.187268 -0.960671
v 57.943661 -25.798170 -0.960671
v 51.313721 -37.281567 -0.960671
v 42.441116 -47.135563 -0.960671
v 31.713659 -54.929539 -0.960671
v 19.600155 -60.322815 -0.960671
v 6.630028 -63.079708 -0.960671
v -6.629855 -63.079708 -0.960671
v -19.599974 -60.322815 -0.960671
v -31.713486 -54.929539 -0.960671
v -42.440956 -47.135578 -0.960671
v -51.313534 -37.281567 -0.960671
v -57.943489 -25.798170 -0.960671
vt 0.165527 0.428906
vt 0.500000 0.500000
vt 0.158055 0.500000
vt 0.165527 0.571094
vt 0.187617 0.639082
vt 0.223361 0.700990
vt 0.271194 0.754115
vt 0.329027 0.796133
vt 0.394333 0.825209
vt 0.464257 0.840072
vt 0.535743 0.840072
vt 0.605667 0.825209
vt 0.670973 0.796133
vt 0.728806 0.754115
vt 0.776640 0.700990
vt 0.812383 0.639082
vt 0.834473 0.571094
vt 0.841945 0.500000
vt 0.834473 0.428906
vt 0.812383 0.360918
vt 0.776640 0.299010
vt 0.728806 0.245885
vt 0.670973 0.203867
vt 0.605667 0.174791
vt 0.535743 0.159928
vt 0.464257 0.159928
vt 0.394333 0.174791
vt 0.329027 0.203867
vt 0.271194 0.245885
vt 0.223361 0.299010
vt 0.187617 0.360918
vt 0.165527 0.428906
vt 0.158055 0.500000
vt 0.500000 0.500000
vt 0.165527 0.571094
vt 0.187617 0.639082
vt 0.223361 0.700990
vt 0.271194 0.754115
vt 0.329027 0.796133
vt 0.394333 0.825209
vt 0.464257 0.840072
vt 0.535743 0.840072
vt 0.605667 0.825209
vt 0.670973 0.796133
vt 0.728806 0.754115
vt 0.776640 0.700990
vt 0.812383 0.639082
vt 0.834473 0.571094
vt 0.841945 0.500000
vt 0.834473 0.428906
vt 0.812383 0.360918
vt 0.776640 0.299010
vt 0.728806 0.245885
vt 0.670973 0.203867
vt 0.605667 0.174791
vt 0.535743 0.159928
vt 0.464257 0.159928
vt 0.394333 0.174791
vt 0.329027 0.203867
vt 0.271194 0.245885
vt 0.223361 0.299010
vt 0.187617 0.360918
vn 0.000003 0.000000 1.000000
vn 0.000003 0.000000 1.000000
vn 0.000003 0.000000 1.000000
vn 0.000003 -0.000000 1.000000
vn 0.000003 -0.000000 1.000000
vn 0.000003 -0.000000 1.000000
vn 0.000003 -0.000001 1.000000
vn 0.000003 -0.000001 1.000000
vn 0.000003 -0.000001 1.000000
vn 0.000003 -0.000001 1.000000
vn 0.000003 -0.000001 1.000000
vn 0.000003 -0.000001 1.000000
vn 0.000002 -0.000002 1.000000
vn 0.000002 -0.000002 1.000000
vn 0.000002 -0.000002 1.000000
vn 0.000002 -0.000002 1.000000
vn 0.000002 -0.000002 1.000000
vn 0.000002 -0.000002 1.000000
vn 0.000001 -0.000003 1.000000
vn 0.000001 -0.000003 1.000000
vn 0.000001 -0.000003 1.000000
vn 0.000001 -0.000003 1.000000
vn 0.000001 -0.000003 1.000000
vn 0.000001 -0.000003 1.000000
vn 0.000000 -0.000003 1.000000
vn 0.000000 -0.000003 1.000000
vn 0.000000 -0.000003 1.000000
vn -0.000001 -0.000003 1.000000
vn -0.000001 -0.000003 1.000000
vn -0.000001 -0.000003 1.000000
vn -0.000001 -0.000003 1.000000
vn -0.000001 -0.000003 1.000000
vn -0.000001 -0.000003 1.000000
vn -0.000002 -0.000002 1.000000
vn -0.000002 -0.000002 1.000000
vn -0.000002 -0.000002 1.000000
vn -0.000002 -0.000002 1.000000
vn -0.000002 -0.000002 1.000000
vn -0.000002 -0.000002 1.000000
vn -0.000003 -0.000001 1.000000
vn -0.000003 -0.000001 1.000000
vn -0.000003 -0.000001 1.000000
vn -0.000003 -0.000001 1.000000
vn -0.000003 -0.000001 1.000000
vn -0.000003 -0.000001 1.000000
vn -0.000003 -0.000000 1.000000
vn -0.000003 -0.000000 1.000000
vn -0.000003 -0.000000 1.000000
vn -0.000003 0.000000 1.000000
vn -0.000003 0.000000 1.000000
vn -0.000003 0.000000 1.000000
vn -0.000003 0.000001 1.000000
vn -0.000003 0.000001 1.000000
vn -0.000003 0.000001 1.000000
vn -0.000003 0.000001 1.000000
vn -0.000003 0.000001 1.000000
vn -0.000003 0.000001 1.000000
vn -0.000002 0.000002 1.000000
vn -0.000002 0.000002 1.000000
vn -0.000002 0.000002 1.000000
vn -0.000002 0.000002 1.000000
vn -0.000002 0.000002 1.000000
vn -0.000002 0.000002 1.000000
vn -0.000001 0.000003 1.000000
vn -0.000001 0.000003 1.000000
vn -0.000001 0.000003 1.000000
vn -0.000001 0.000003 1.000000
vn -0.000001 0.000003 1.000000
vn -0.000001 0.000003 1.000000
vn 0.000000 0.000003 1.000000
vn 0.000000 0.000003 1.000000
vn 0.000000 0.000003 1.000000
vn 0.000001 0.000003 1.000000
vn 0.000001 0.000003 1.000000
vn 0.000001 0.000003 1.000000
vn 0.000001 0.000003 1.000000
vn 0.000001 0.000003 1.000000
vn 0.000001 0.000003 1.000000
vn 0.000002 0.000002 1.000000
vn 0.000002 0.000002 1.000000
vn 0.000002 0.000002 1.000000
vn 0.000002 0.000002 1.000000
vn 0.000002 0.000002 1.000000
vn 0.000002 0.000002 1.000000
vn 0.000003 0.000001 1.000000
vn 0.000003 0.000001 1.000000
vn 0.000003 0.000001 1.000000
vn 0.000003 0.000001 1.000000
vn 0.000003 0.000001 1.000000
vn 0.000003 0.000001 1.000000
vn -0.000003 -0.000000 -1.000000
vn -0.000003 -0.000000 -1.000000
vn -0.000003 -0.000000 -1.000000
vn -0.000003 0.000000 -1.000000
vn -0.000003 0.000000 -1.000000
vn -0.000003 0.000000 -1.000000
vn -0.000003 0.000001 -1.000000
vn -0.000003 0.000001 -1.000000
vn -0.000003 0.000001 -1.000000
vn -0.000003 0.000001 -1.000000
vn -0.000003 0.000001 -1.000000
vn -0.000003 0.000001 -1.000000
vn -0.000002 0.000002 -1.000000
vn -0.000002 0.000002 -1.000000
vn -0.000002 0.000002 -1.000000
vn -0.000002 0.000002 -1.000000
vn -0.000002 0.000002 -1.000000
vn -0.000002 0.000002 -1.000000
vn -0.000001 0.000003 -1.000000
vn -0.000001 0.000003 -1.000000
vn -0.000001 0.000003 -1.000000
vn -0.000001 0.000003 -1.000000
vn -0.000001 0.000003 -1.000000
vn -0.000001 0.000003 -1.000000
vn 0.000000 0.000003 -1.000000
vn 0.000000 0.000003 -1.000000
vn 0.000000 0.000003 -1.000000
vn 0.000001 0.000003 -1.000000
vn 0.000001 0.000003 -1.000000
vn 0.000001 0.000003 -1.000000
vn 0.000001 0.000003 -1.000000
vn 0.000001 0.000003 -1.000000
vn 0.000001 0.000003 -1.000000
vn 0.000002 0.000002 -1.000000
vn 0.000002 0.000002 -1.000000
vn 0.000002 0.000002 -1.000000
vn 0.000002 0.000002 -1.000000
vn 0.000002 0.000002 -1.000000
vn 0.000002 0.000002 -1.000000
vn 0.000003 0.000001 -1.000000
vn 0.000003 0.000001 -1.000000
vn 0.000003 0.000001 -1.000000
vn 0.000003 0.000001 -1.000000
vn 0.000003 0.000001 -1.000000
vn 0.000003 0.000001 -1.000000
vn 0.000003 0.000000 -1.000000
vn 0.000003 0.000000 -1.000000
vn 0.000003 0.000000 -1.000000
vn 0.000003 -0.000000 -1.000000
vn 0.000003 -0.000000 -1.000000
vn 0.000003 -0.000000 -1.000000
vn 0.000003 -0.000001 -1.000000
vn 0.000003 -0.000001 -1.000000
vn 0.000003 -0.000001 -1.000000
vn 0.000003 -0.000001 -1.000000
vn 0.000003 -0.000001 -1.000000
vn 0.000003 -0.000001 -1.000000
vn 0.000002 -0.000002 -1.000000
vn 0.000002 -0.000002 -1.000000
vn 0.000002 -0.000002 -1.000000
vn 0.000002 -0.000002 -1.000000
vn 0.000002 -0.000002 -1.000000
vn 0.000002 -0.000002 -1.000000
vn 0.000001 -0.000003 -1.000000
vn 0.000001 -0.000003 -1.000000
vn 0.000001 -0.000003 -1.000000
vn 0.000001 -0.000003 -1.000000
vn 0.000001 -0.000003 -1.000000
vn 0.000001 -0.000003 -1.000000
vn 0.000000 -0.000003 -1.000000
vn 0.000000 -0.000003 -1.000000
vn 0.000000 -0.000003 -1.000000
vn -0.000001 -0.000003 -1.000000
vn -0.000001 -0.000003 -1.000000
vn -0.000001 -0.000003 -1.000000
vn -0.000001 -0.000003 -1.000000
vn -0.000001 -0.000003 -1.000000
vn -0.000001 -0.000003 -1.000000
vn -0.000002 -0.000002 -1.000000
vn -0.000002 -0.000002 -1.000000
vn -0.000002 -0.000002 -1.000000
vn -0.000002 -0.000002 -1.000000
vn -0.000002 -0.000002 -1.000000
vn -0.000002 -0.000002 -1.000000
vn -0.000003 -0.000001 -1.000000
vn -0.000003 -0.000001 -1.000000
vn -0.000003 -0.000001 -1.000000
vn -0.000003 -0.000001 -1.000000
vn -0.000003 -0.000001 -1.000000
vn -0.000003 -0.000001 -1.000000
s off
g Window_glass Circular_window
usemtl Window_glassSG
f 2/1/1 1/2/2 3/3/3
f 3/3/4 1/2/5 4/4/6
f 4/4/7 1/2/8 5/5/9
f 5/5/10 1/2/11 6/6/12
f 6/6/13 1/2/14 7/7/15
f 7/7/16 1/2/17 8/8/18
f 8/8/19 1/2/20 9/9/21
f 9/9/22 1/2/23 10/10/24
f 10/10/25 1/2/26 11/11/27
f 11/11/28 1/2/29 12/12/30
f 12/12/31 1/2/32 13/13/33
f 13/13/34 1/2/35 14/14/36
f 14/14/37 1/2/38 15/15/39
f 15/15/40 1/2/41 16/16/42
f 16/16/43 1/2/44 17/17/45
f 17/17/46 1/2/47 18/18/48
f 18/18/49 1/2/50 19/19/51
f 19/19/52 1/2/53 20/20/54
f 20/20/55 1/2/56 21/21/57
f 21/21/58 1/2/59 22/22/60
f 22/22/61 1/2/62 23/23/63
f 23/23/64 1/2/65 24/24/66
f 24/24/67 1/2/68 25/25/69
f 25/25/70 1/2/71 26/26/72
f 26/26/73 1/2/74 27/27/75
f 27/27/76 1/2/77 28/28/78
f 28/28/79 1/2/80 29/29/81
f 29/29/82 1/2/83 30/30/84
f 30/30/85 1/2/86 31/31/87
f 31/31/88 1/2/89 2/1/90
f 33/32/91 34/33/92 32/34/93
f 34/33/94 35/35/95 32/34/96
f 35/35/97 36/36/98 32/34/99
f 36/36/100 37/37/101 32/34/102
f 37/37/103 38/38/104 32/34/105
f 38/38/106 39/39/107 32/34/108
f 39/39/109 40/40/110 32/34/111
f 40/40/112 41/41/113 32/34/114
f 41/41/115 42/42/116 32/34/117
f 42/42/118 43/43/119 32/34/120
f 43/43/121 44/44/122 32/34/123
f 44/44/124 45/45/125 32/34/126
f 45/45/127 46/46/128 32/34/129
f 46/46/130 47/47/131 32/34/132
f 47/47/133 48/48/134 32/34/135
f 48/48/136 49/49/137 32/34/138
f 49/49/139 50/50/140 32/34/141
f 50/50/142 51/51/143 32/34/144
f 51/51/145 52/52/146 32/34/147
f 52/52/148 53/53/149 32/34/150
f 53/53/151 54/54/152 32/34/153
f 54/54/154 55/55/155 32/34/156
f 55/55/157 56/56/158 32/34/159
f 56/56/160 57/57/161 32/34/162
f 57/57/163 58/58/164 32/34/165
f 58/58/166 59/59/167 32/34/168
f 59/59/169 60/60/170 32/34/171
f 60/60/172 61/61/173 32/34/174
f 61/61/175 62/62/176 32/34/177
f 62/62/178 33/32/179 32/34/180
g default
v -66.787460 -0.000031 4.863770
v -65.327988 -13.885941 4.863770
v -65.327988 13.885864 4.863770
v -61.013382 27.164902 4.863770
v -54.032166 39.256683 4.863770
v -44.689514 49.632782 4.863770
v -33.393692 57.839645 4.863770
v -20.638412 63.518661 4.863770
v -6.981125 66.421600 4.863770
v 6.981262 66.421600 4.863770
v 20.638542 63.518661 4.863770
v 33.393829 57.839645 4.863770
v 44.689651 49.632782 4.863770
v 54.032303 39.256683 4.863770
v 61.013504 27.164902 4.863770
v 65.328117 13.885864 4.863770
v 66.787582 -0.000031 4.863770
v 65.328186 -13.885941 4.863770
v 61.013565 -27.164978 4.863770
v 54.032364 -39.256775 4.863770
v 44.689682 -49.632843 4.863770
v 33.393875 -57.839752 4.863770
v 20.638588 -63.518768 4.863770
v 6.981293 -66.421722 4.863770
v -6.981110 -66.421722 4.863770
v -20.638397 -63.518768 4.863770
v -33.393692 -57.839752 4.863770
v -44.689514 -49.632858 4.863770
v -54.032166 -39.256775 4.863770
v -61.013382 -27.164978 4.863770
v -65.327988 -13.885941 -6.531250
v -66.787460 -0.000031 -6.531250
v -65.327988 13.885864 -6.531250
v -61.013382 27.164902 -6.531250
v -54.032166 39.256683 -6.531250
v -44.689514 49.632782 -6.531250
v -33.393692 57.839645 -6.531250
v -20.638412 63.518661 -6.531250
v -6.981125 66.421600 -6.531250
v 6.981262 66.421600 -6.531250
v 20.638542 63.518661 -6.531250
v 33.393829 57.839645 -6.531250
v 44.689651 49.632782 -6.531250
v 54.032310 39.256683 -6.531250
v 61.013504 27.164902 -6.531250
v 65.328117 13.885864 -6.531250
v 66.787582 -0.000031 -6.531250
v 65.328186 -13.885941 -6.531250
v 61.013565 -27.164978 -6.531250
v 54.032364 -39.256775 -6.531250
v 44.689682 -49.632858 -6.531250
v 33.393867 -57.839752 -6.531250
v 20.638588 -63.518768 -6.531250
v 6.981293 -66.421722 -6.531250
v -6.981110 -66.421722 -6.531250
v -20.638397 -63.518768 -6.531250
v -33.393692 -57.839752 -6.531250
v -44.689514 -49.632858 -6.531250
v -54.032166 -39.256775 -6.531250
v -61.013382 -27.164978 -6.531250
v -61.829575 -0.000015 2.391296
v -62.330231 -0.000015 3.124146
v -60.478455 -12.855118 2.391296
v -60.968170 -12.959213 3.124146
v -60.478424 12.855148 2.391296
v -60.968140 12.959229 3.124146
v -56.484131 25.148346 2.391296
v -56.941513 25.351990 3.124146
v -50.021103 36.342575 2.391296
v -50.426147 36.636856 3.124146
v -41.372040 45.948364 2.391296
v -41.707047 46.320435 3.124146
v -30.914795 53.545975 2.391296
v -31.165115 53.979568 3.124146
v -19.106384 58.803421 2.391296
v -19.261093 59.279587 3.124146
v -6.462875 61.490875 2.391296
v -6.515213 61.988800 3.124146
v 6.463028 61.490875 2.391296
v 6.515366 61.988800 3.124146
v 19.106552 58.803421 2.391296
v 19.261253 59.279587 3.124146
v 30.914833 53.546021 2.391296
v 31.165169 53.979599 3.124146
v 41.372131 45.948380 2.391296
v 41.707146 46.320435 3.124146
v 50.021294 36.342499 2.391296
v 50.426338 36.636780 3.124146
v 56.484245 25.148346 2.391296
v 56.941620 25.351990 3.124146
v 60.478577 12.855072 2.391296
v 60.968300 12.959167 3.124146
v 61.829697 -0.000015 2.391296
v 62.330360 -0.000015 3.124146
v 60.478638 -12.855148 2.391296
v 60.968361 -12.959244 3.124146
v 56.484329 -25.148361 2.391296
v 56.941704 -25.352005 3.124146
v 50.021317 -36.342651 2.391296
v 50.426361 -36.636932 3.124146
v 41.372231 -45.948395 2.391296
v 41.707237 -46.320465 3.124146
v 30.914894 -53.546112 2.391296
v 31.165230 -53.979691 3.124146
v 19.106552 -58.803543 2.391296
v 19.261261 -59.279694 3.124146
v 6.463043 -61.490997 2.391296
v 6.515381 -61.988922 3.124146
v -6.462845 -61.490997 2.391296
v -6.515182 -61.988922 3.124146
v -19.106339 -58.803543 2.391296
v -19.261047 -59.279694 3.124146
v -30.914749 -53.546097 2.391296
v -31.165085 -53.979675 3.124146
v -41.372055 -45.948410 2.391296
v -41.707062 -46.320480 3.124146
v -50.021149 -36.342606 2.391296
v -50.426193 -36.636887 3.124146
v -56.484161 -25.148376 2.391296
v -56.941528 -25.352020 3.124146
v -61.829575 -0.000015 -4.058777
v -62.330231 -0.000015 -4.791504
v -60.478439 -12.855164 -4.058777
v -60.968155 -12.959259 -4.791504
v -60.478439 12.855087 -4.058777
v -60.968155 12.959183 -4.791504
v -56.484116 25.148376 -4.058777
v -56.941483 25.352005 -4.791504
v -50.021149 36.342499 -4.058777
v -50.426193 36.636780 -4.791504
v -41.372101 45.948303 -4.058777
v -41.707092 46.320374 -4.791504
v -30.914749 53.545990 -4.058777
v -31.165085 53.979568 -4.791504
v -19.106277 58.803436 -4.058777
v -19.261002 59.279587 -4.791504
v -6.462830 61.490875 -4.058777
v -6.515167 61.988785 -4.791504
v 6.463013 61.490875 -4.058777
v 6.515350 61.988785 -4.791504
v 19.106537 58.803421 -4.058777
v 19.261246 59.279572 -4.791504
v 30.914825 53.546051 -4.058777
v 31.165161 53.979630 -4.791504
v 41.372162 45.948364 -4.058777
v 41.707169 46.320419 -4.791504
v 50.021301 36.342499 -4.058777
v 50.426338 36.636780 -4.791504
v 56.484245 25.148346 -4.058777
v 56.941620 25.351974 -4.791504
v 60.478577 12.855042 -4.058777
v 60.968292 12.959137 -4.791504
v 61.829697 -0.000015 -4.058777
v 62.330353 -0.000015 -4.791504
v 60.478638 -12.855133 -4.058777
v 60.968353 -12.959229 -4.791504
v 56.484306 -25.148422 -4.058777
v 56.941681 -25.352051 -4.791504
v 50.021339 -36.342606 -4.058777
v 50.426376 -36.636887 -4.791504
v 41.372200 -45.948425 -4.058777
v 41.707207 -46.320480 -4.791504
v 30.914894 -53.546112 -4.058777
v 31.165222 -53.979691 -4.791504
v 19.106522 -58.803543 -4.058777
v 19.261230 -59.279694 -4.791504
v 6.463028 -61.490997 -4.058777
v 6.515366 -61.988907 -4.791504
v -6.462860 -61.490997 -4.058777
v -6.515198 -61.988907 -4.791504
v -19.106323 -58.803543 -4.058777
v -19.261032 -59.279694 -4.791504
v -30.914719 -53.546112 -4.058777
v -31.165054 -53.979691 -4.791504
v -41.372040 -45.948441 -4.058777
v -41.707047 -46.320496 -4.791504
v -50.021149 -36.342606 -4.058777
v -50.426193 -36.636887 -4.791504
v -56.484131 -25.148438 -4.058777
v -56.941498 -25.352066 -4.791504
v 56.484318 -25.148388 -0.453184
v 56.484318 -25.148396 -1.214297
v 60.478638 -12.855140 -1.214297
v 60.478638 -12.855142 -0.453184
v 61.829697 -0.000015 -1.214297
v 61.829697 -0.000015 -0.453184
v 60.478577 12.855055 -1.214297
v 60.478577 12.855059 -0.453184
v 56.484245 25.148346 -1.214297
v 56.484245 25.148346 -0.453184
v 50.021297 36.342499 -1.214297
v 50.021297 36.342499 -0.453184
v 41.372147 45.948372 -1.214297
v 41.372147 45.948372 -0.453184
v 30.914829 53.546036 -1.214297
v 30.914829 53.546036 -0.453184
v 19.106544 58.803421 -1.214297
v 19.106544 58.803421 -0.453184
v 6.463019 61.490875 -1.214297
v 6.463021 61.490875 -0.453184
v -6.462850 61.490875 -1.214297
v -6.462855 61.490875 -0.453184
v -19.106325 58.803429 -1.214297
v -19.106337 58.803429 -0.453184
v -30.914770 53.545982 -1.214297
v -30.914774 53.545982 -0.453184
v -41.372074 45.948330 -1.214297
v -41.372066 45.948338 -0.453184
v -50.021130 36.342533 -1.214297
v -50.021122 36.342541 -0.453184
v -56.484123 25.148363 -1.214297
v -56.484123 25.148359 -0.453184
v -60.478432 12.855114 -1.214297
v -60.478432 12.855122 -0.453184
v -61.829575 -0.000015 -1.214297
v -61.829575 -0.000015 -0.453184
v -60.478447 -12.855144 -1.214297
v -60.478447 -12.855138 -0.453184
v -56.484146 -25.148411 -1.214297
v -56.484146 -25.148403 -0.453184
v -50.021149 -36.342606 -1.214297
v -50.021149 -36.342606 -0.453184
v -41.372047 -45.948425 -1.214297
v -41.372047 -45.948425 -0.453184
v -30.914732 -53.546104 -1.214297
v -30.914736 -53.546104 -0.453184
v -19.106331 -58.803543 -1.214297
v -19.106331 -58.803543 -0.453184
v -6.462853 -61.490997 -1.214297
v -6.462852 -61.490997 -0.453184
v 6.463035 -61.490997 -1.214297
v 6.463037 -61.490997 -0.453184
v 19.106535 -58.803543 -1.214297
v 19.106539 -58.803543 -0.453184
v 30.914894 -53.546112 -1.214297
v 30.914894 -53.546112 -0.453184
v 41.372215 -45.948410 -1.214297
v 41.372215 -45.948410 -0.453184
v 50.021328 -36.342625 -1.214297
v 50.021328 -36.342632 -0.453184
v 56.736153 -25.260511 -0.596251
v 56.736153 -25.260519 -1.071218
v 50.244347 -36.504662 -1.071216
v 50.244347 -36.504665 -0.596249
v 60.748280 -12.912456 -0.596264
v 60.748280 -12.912453 -1.071231
v 62.105362 -0.000015 -0.596253
v 62.105362 -0.000014 -1.071220
v 60.748219 12.912373 -0.596259
v 60.748219 12.912370 -1.071226
v 56.736080 25.260469 -0.596257
v 56.736080 25.260469 -1.071224
v 50.244316 36.504532 -0.596257
v 50.244316 36.504532 -1.071224
v 41.556602 46.153233 -0.596257
v 41.556602 46.153233 -1.071224
v 31.052662 53.784771 -0.596257
v 31.052662 53.784771 -1.071224
v 19.191729 59.065594 -0.596257
v 19.191729 59.065594 -1.071224
v 6.491836 61.765030 -0.596257
v 6.491834 61.765030 -1.071224
v -6.491670 61.765030 -0.596257
v -6.491664 61.765030 -1.071224
v -19.191521 59.065601 -0.596261
v -19.191509 59.065601 -1.071228
v -31.052607 53.784714 -0.596261
v -31.052603 53.784718 -1.071228
v -41.556522 46.153194 -0.596252
v -41.556530 46.153191 -1.071219
v -50.244141 36.504574 -0.596246
v -50.244148 36.504566 -1.071213
v -56.735958 25.260485 -0.596266
v -56.735958 25.260487 -1.071233
v -60.748074 12.912436 -0.596262
v -60.748074 12.912429 -1.071229
v -62.105240 -0.000016 -0.596256
v -62.105240 -0.000015 -1.071223
v -60.748089 -12.912453 -0.596263
v -60.748089 -12.912457 -1.071230
v -56.735981 -25.260529 -0.596251
v -56.735981 -25.260532 -1.071218
v -50.244167 -36.504639 -0.596250
v -50.244167 -36.504639 -1.071217
v -41.556503 -46.153286 -0.596257
v -41.556503 -46.153286 -1.071224
v -31.052568 -53.784840 -0.596254
v -31.052565 -53.784840 -1.071221
v -19.191515 -59.065716 -0.596261
v -19.191515 -59.065716 -1.071228
v -6.491667 -61.765152 -0.596257
v -6.491669 -61.765152 -1.071224
v 6.491851 -61.765152 -0.596257
v 6.491849 -61.765152 -1.071224
v 19.191725 -59.065716 -0.596261
v 19.191721 -59.065716 -1.071228
v 31.052729 -53.784847 -0.596254
v 31.052729 -53.784847 -1.071221
v 41.556671 -46.153271 -0.596266
v 41.556671 -46.153275 -1.071233
vt 0.066624 0.410549
vt 0.099164 0.503384
vt 0.107997 0.587426
vt 0.134111 0.667795
vt 0.176363 0.740978
vt 0.232908 0.803777
vt 0.301274 0.853448
vt 0.378474 0.887819
vt 0.461132 0.905389
vt 0.545636 0.905388
vt 0.628295 0.887819
vt 0.705493 0.853448
vt 0.773860 0.803777
vt 0.830404 0.740977
vt 0.872657 0.667794
vt 0.898770 0.587425
vt 0.907603 0.503383
vt 0.898770 0.419341
vt 0.872656 0.338972
vt 0.830404 0.265789
vt 0.773859 0.202989
vt 0.705493 0.153319
vt 0.628294 0.118948
vt 0.545635 0.101378
vt 0.461131 0.101378
vt 0.378472 0.118948
vt 0.301273 0.153319
vt 0.232907 0.202990
vt 0.176363 0.265790
vt 0.134110 0.338973
vt 0.017117 0.503384
vt 0.027743 0.402284
vt 0.060722 0.409295
vt 0.050833 0.503385
vt 0.027743 0.604485
vt 0.060723 0.597476
vt 0.059157 0.701167
vt 0.089959 0.687454
vt 0.109986 0.789205
vt 0.137264 0.769388
vt 0.178008 0.864751
vt 0.200569 0.839695
vt 0.260251 0.924503
vt 0.277109 0.895304
vt 0.353119 0.965851
vt 0.363539 0.933785
vt 0.452556 0.986987
vt 0.456081 0.953455
vt 0.554213 0.986986
vt 0.550689 0.953454
vt 0.653649 0.965850
vt 0.643231 0.933784
vt 0.746517 0.924502
vt 0.729659 0.895303
vt 0.828760 0.864750
vt 0.806200 0.839693
vt 0.896782 0.789203
vt 0.869505 0.769385
vt 0.947611 0.701165
vt 0.916809 0.687451
vt 0.979024 0.604483
vt 0.946045 0.597473
vt 0.989650 0.503383
vt 0.955934 0.503382
vt 0.979024 0.402282
vt 0.946044 0.409292
vt 0.947610 0.305600
vt 0.916809 0.319314
vt 0.896782 0.217562
vt 0.869503 0.237379
vt 0.828759 0.142016
vt 0.806198 0.167072
vt 0.746517 0.082264
vt 0.729658 0.111463
vt 0.653648 0.040916
vt 0.643228 0.072982
vt 0.554212 0.019780
vt 0.550687 0.053312
vt 0.452554 0.019780
vt 0.456078 0.053312
vt 0.353118 0.040916
vt 0.363536 0.072983
vt 0.260249 0.082264
vt 0.277107 0.111464
vt 0.178007 0.142017
vt 0.200567 0.167074
vt 0.109985 0.217563
vt 0.137262 0.237382
vt 0.059156 0.305602
vt 0.089957 0.319316
vt 0.139985 0.426140
vt 0.131866 0.503383
vt 0.104521 0.503384
vt 0.113237 0.420456
vt 0.139985 0.580626
vt 0.113237 0.586312
vt 0.163985 0.654492
vt 0.139004 0.665616
vt 0.202819 0.721755
vt 0.180697 0.737830
vt 0.254789 0.779474
vt 0.236492 0.799796
vt 0.317624 0.825127
vt 0.303952 0.848809
vt 0.388578 0.856717
vt 0.380129 0.882725
vt 0.464549 0.872865
vt 0.461692 0.900061
vt 0.542217 0.872866
vt 0.545076 0.900061
vt 0.618188 0.856718
vt 0.626640 0.882724
vt 0.689142 0.825127
vt 0.702815 0.848809
vt 0.751976 0.779475
vt 0.770275 0.799796
vt 0.803947 0.721757
vt 0.826071 0.737829
vt 0.842781 0.654494
vt 0.867763 0.665615
vt 0.866782 0.580627
vt 0.893530 0.586311
vt 0.874901 0.503384
vt 0.902246 0.503383
vt 0.866783 0.426141
vt 0.893530 0.420455
vt 0.842782 0.352274
vt 0.867763 0.341151
vt 0.803948 0.285012
vt 0.826070 0.268937
vt 0.751978 0.227293
vt 0.770275 0.206970
vt 0.689143 0.181640
vt 0.702815 0.157958
vt 0.618190 0.150050
vt 0.626639 0.124042
vt 0.542219 0.133901
vt 0.545076 0.106705
vt 0.464550 0.133901
vt 0.461691 0.106705
vt 0.388579 0.150049
vt 0.380128 0.124042
vt 0.317626 0.181640
vt 0.303952 0.157958
vt 0.254790 0.227292
vt 0.236492 0.206971
vt 0.202820 0.285010
vt 0.180696 0.268938
vt 0.163986 0.352273
vt 0.139004 0.341152
vt 0.911296 0.321768
vt 0.894576 0.329212
vt 0.940142 0.410546
vt 0.922239 0.414351
vt 0.949900 0.503382
vt 0.931597 0.503381
vt 0.940143 0.596218
vt 0.922240 0.592412
vt 0.911297 0.684997
vt 0.894577 0.677552
vt 0.864624 0.765838
vt 0.849817 0.755080
vt 0.802162 0.835209
vt 0.789916 0.821607
vt 0.726643 0.890077
vt 0.717492 0.874227
vt 0.641367 0.928045
vt 0.635711 0.910638
vt 0.550059 0.947453
vt 0.548146 0.929251
vt 0.456712 0.947454
vt 0.458625 0.929252
vt 0.365404 0.928046
vt 0.371060 0.910639
vt 0.280126 0.890078
vt 0.289278 0.874228
vt 0.204607 0.835211
vt 0.216854 0.821609
vt 0.142146 0.765841
vt 0.156953 0.755083
vt 0.095471 0.685000
vt 0.112192 0.677556
vt 0.066625 0.596222
vt 0.084528 0.592416
vt 0.056867 0.503385
vt 0.075170 0.503386
vt 0.107997 0.419342
vt 0.084527 0.414355
vt 0.095470 0.321771
vt 0.112190 0.329215
vt 0.142143 0.240929
vt 0.156950 0.251687
vt 0.204604 0.171559
vt 0.216851 0.185160
vt 0.280124 0.116690
vt 0.289275 0.132541
vt 0.365401 0.078722
vt 0.371056 0.096129
vt 0.456708 0.059313
vt 0.458621 0.077516
vt 0.550056 0.059313
vt 0.548142 0.077515
vt 0.641364 0.078721
vt 0.635707 0.096127
vt 0.726640 0.116688
vt 0.717489 0.132539
vt 0.802160 0.171556
vt 0.789913 0.185157
vt 0.864622 0.240926
vt 0.849814 0.251684
vt 0.158537 0.753933
vt 0.844300 0.255690
vt 0.888349 0.331984
vt 0.786652 0.188779
vt 0.915572 0.415768
vt 0.788603 0.186612
vt 0.924781 0.503382
vt 0.715052 0.136760
vt 0.915573 0.590995
vt 0.716510 0.134234
vt 0.888350 0.674780
vt 0.634201 0.100763
vt 0.844302 0.751073
vt 0.635102 0.097990
vt 0.785355 0.816542
vt 0.547633 0.082362
vt 0.714083 0.868324
vt 0.547937 0.079462
vt 0.633605 0.904155
vt 0.459131 0.082363
vt 0.547433 0.922472
vt 0.458826 0.079463
vt 0.459338 0.922473
vt 0.372562 0.100764
vt 0.373166 0.904157
vt 0.371661 0.097991
vt 0.292686 0.868325
vt 0.291712 0.136762
vt 0.221415 0.816544
vt 0.290254 0.134236
vt 0.162467 0.751077
vt 0.220112 0.188782
vt 0.118419 0.674783
vt 0.218161 0.186615
vt 0.091195 0.590999
vt 0.160893 0.254552
vt 0.081986 0.503386
vt 0.158534 0.252838
vt 0.091194 0.415772
vt 0.116642 0.331198
vt 0.118417 0.331988
vt 0.113979 0.330012
vt 0.162465 0.255694
vt 0.089294 0.415368
vt 0.221412 0.190226
vt 0.086442 0.414762
vt 0.292683 0.138444
vt 0.080044 0.503386
vt 0.373163 0.102611
vt 0.077128 0.503386
vt 0.459334 0.084295
vt 0.089295 0.591403
vt 0.547430 0.084294
vt 0.086443 0.592010
vt 0.633601 0.102610
vt 0.116644 0.675573
vt 0.714081 0.138442
vt 0.113980 0.676759
vt 0.785352 0.190223
vt 0.160896 0.752219
vt 0.890123 0.331194
vt 0.845871 0.254548
vt 0.848230 0.252835
vt 0.892787 0.330008
vt 0.920324 0.414758
vt 0.917472 0.415364
vt 0.929639 0.503381
vt 0.926723 0.503381
vt 0.920325 0.592005
vt 0.917473 0.591399
vt 0.892788 0.676756
vt 0.890124 0.675570
vt 0.848233 0.753929
vt 0.845874 0.752215
vt 0.788606 0.820152
vt 0.786654 0.817985
vt 0.716513 0.872531
vt 0.715055 0.870006
vt 0.635106 0.908776
vt 0.634205 0.906003
vt 0.547941 0.927304
vt 0.547636 0.924404
vt 0.458830 0.927304
vt 0.459135 0.924405
vt 0.371665 0.908777
vt 0.372566 0.906004
vt 0.290257 0.872533
vt 0.291715 0.870007
vt 0.218164 0.820154
vt 0.220115 0.817988
vn 0.995265 -0.000000 0.097197
vn 0.973516 0.206926 0.097198
vn 0.968084 0.205772 -0.143077
vn 0.989711 -0.000000 -0.143078
vn 0.973516 -0.206928 0.097197
vn 0.968084 -0.205772 -0.143078
vn 0.909220 -0.404811 0.097198
vn 0.904146 -0.402553 -0.143077
vn 0.805186 -0.585003 0.097198
vn 0.800694 -0.581737 -0.143078
vn 0.665962 -0.739626 0.097200
vn 0.662247 -0.735498 -0.143078
vn 0.497632 -0.861925 0.097200
vn 0.494854 -0.857116 -0.143078
vn 0.307554 -0.946553 0.097198
vn 0.305836 -0.941272 -0.143077
vn 0.104034 -0.989813 0.097196
vn 0.103453 -0.984290 -0.143078
vn -0.104034 -0.989813 0.097197
vn -0.103453 -0.984290 -0.143077
vn -0.307552 -0.946554 0.097196
vn -0.305836 -0.941272 -0.143078
vn -0.497633 -0.861925 0.097194
vn -0.494855 -0.857115 -0.143080
vn -0.665962 -0.739627 0.097195
vn -0.662246 -0.735499 -0.143080
vn -0.805187 -0.585002 0.097196
vn -0.800694 -0.581737 -0.143079
vn -0.909220 -0.404810 0.097197
vn -0.904146 -0.402552 -0.143078
vn -0.973516 -0.206928 0.097198
vn -0.968084 -0.205772 -0.143078
vn -0.995265 -0.000002 0.097197
vn -0.989711 -0.000002 -0.143078
vn -0.973517 0.206925 0.097198
vn -0.968084 0.205770 -0.143078
vn -0.909220 0.404811 0.097197
vn -0.904146 0.402553 -0.143078
vn -0.805186 0.585003 0.097199
vn -0.800693 0.581738 -0.143078
vn -0.665962 0.739626 0.097200
vn -0.662246 0.735500 -0.143078
vn -0.497633 0.861924 0.097198
vn -0.494857 0.857115 -0.143078
vn -0.307554 0.946553 0.097197
vn -0.305837 0.941272 -0.143077
vn -0.104034 0.989813 0.097198
vn -0.103453 0.984290 -0.143077
vn 0.104034 0.989813 0.097197
vn 0.103453 0.984290 -0.143077
vn 0.307554 0.946554 0.097196
vn 0.305837 0.941272 -0.143078
vn 0.497633 0.861925 0.097196
vn 0.494855 0.857116 -0.143078
vn 0.665963 0.739626 0.097197
vn 0.662246 0.735499 -0.143079
vn 0.805186 0.585002 0.097197
vn 0.800693 0.581738 -0.143079
vn 0.909220 0.404811 0.097198
vn 0.904146 0.402553 -0.143077
vn 0.363582 -0.000000 0.931562
vn 0.355637 0.075593 0.931562
vn 0.427557 0.090880 0.899408
vn 0.437109 -0.000000 0.899409
vn 0.355637 -0.075592 0.931562
vn 0.427557 -0.090880 0.899409
vn 0.332149 -0.147883 0.931562
vn 0.399318 -0.177788 0.899409
vn 0.294145 -0.213708 0.931562
vn 0.353628 -0.256927 0.899409
vn 0.243285 -0.270195 0.931562
vn 0.292483 -0.324835 0.899409
vn 0.181791 -0.314873 0.931562
vn 0.218554 -0.378548 0.899408
vn 0.112353 -0.345788 0.931562
vn 0.135074 -0.415715 0.899408
vn 0.038005 -0.361591 0.931562
vn 0.045690 -0.434714 0.899409
vn -0.038005 -0.361591 0.931562
vn -0.045690 -0.434715 0.899409
vn -0.112353 -0.345788 0.931562
vn -0.135074 -0.415716 0.899408
vn -0.181791 -0.314872 0.931562
vn -0.218554 -0.378548 0.899409
vn -0.243284 -0.270194 0.931562
vn -0.292482 -0.324835 0.899409
vn -0.294144 -0.213708 0.931562
vn -0.353628 -0.256926 0.899409
vn -0.332149 -0.147882 0.931562
vn -0.399318 -0.177788 0.899409
vn -0.355637 -0.075593 0.931562
vn -0.427557 -0.090880 0.899409
vn -0.363583 -0.000001 0.931562
vn -0.437109 -0.000001 0.899409
vn -0.355637 0.075592 0.931562
vn -0.427557 0.090879 0.899409
vn -0.332149 0.147883 0.931562
vn -0.399319 0.177788 0.899409
vn -0.294144 0.213708 0.931562
vn -0.353628 0.256926 0.899409
vn -0.243284 0.270195 0.931562
vn -0.292482 0.324835 0.899409
vn -0.181792 0.314871 0.931562
vn -0.218555 0.378547 0.899409
vn -0.112353 0.345788 0.931562
vn -0.135074 0.415716 0.899408
vn -0.038005 0.361591 0.931562
vn -0.045690 0.434714 0.899409
vn 0.038005 0.361591 0.931562
vn 0.045690 0.434714 0.899409
vn 0.112353 0.345787 0.931562
vn 0.135074 0.415715 0.899409
vn 0.181791 0.314871 0.931562
vn 0.218554 0.378547 0.899409
vn 0.243284 0.270194 0.931562
vn 0.292483 0.324835 0.899409
vn 0.294144 0.213708 0.931562
vn 0.353628 0.256926 0.899409
vn 0.332149 0.147882 0.931562
vn 0.399319 0.177788 0.899409
vn 0.355659 0.075597 -0.931554
vn 0.363604 0.000000 -0.931554
vn 0.437111 -0.000000 -0.899408
vn 0.427559 0.090880 -0.899408
vn 0.355658 -0.075597 -0.931554
vn 0.427559 -0.090881 -0.899408
vn 0.332169 -0.147891 -0.931554
vn 0.399320 -0.177789 -0.899408
vn 0.294162 -0.213721 -0.931554
vn 0.353630 -0.256927 -0.899408
vn 0.243299 -0.270211 -0.931554
vn 0.292484 -0.324836 -0.899408
vn 0.181802 -0.314890 -0.931554
vn 0.218555 -0.378549 -0.899408
vn 0.112360 -0.345807 -0.931554
vn 0.135074 -0.415716 -0.899408
vn 0.038007 -0.361612 -0.931554
vn 0.045690 -0.434716 -0.899408
vn -0.038007 -0.361612 -0.931554
vn -0.045691 -0.434716 -0.899408
vn -0.112359 -0.345809 -0.931553
vn -0.135075 -0.415718 -0.899407
vn -0.181803 -0.314891 -0.931553
vn -0.218555 -0.378550 -0.899407
vn -0.243299 -0.270210 -0.931554
vn -0.292484 -0.324837 -0.899408
vn -0.294162 -0.213721 -0.931554
vn -0.353630 -0.256927 -0.899408
vn -0.332169 -0.147891 -0.931554
vn -0.399320 -0.177789 -0.899408
vn -0.355658 -0.075598 -0.931554
vn -0.427559 -0.090880 -0.899408
vn -0.363604 -0.000001 -0.931554
vn -0.437111 -0.000001 -0.899408
vn -0.355658 0.075597 -0.931554
vn -0.427558 0.090879 -0.899408
vn -0.332168 0.147891 -0.931554
vn -0.399320 0.177789 -0.899408
vn -0.294161 0.213721 -0.931554
vn -0.353629 0.256927 -0.899408
vn -0.243298 0.270210 -0.931554
vn -0.292484 0.324836 -0.899408
vn -0.181802 0.314890 -0.931554
vn -0.218555 0.378549 -0.899408
vn -0.112360 0.345808 -0.931554
vn -0.135075 0.415717 -0.899408
vn -0.038007 0.361612 -0.931554
vn -0.045691 0.434716 -0.899408
vn 0.038007 0.361612 -0.931554
vn 0.045691 0.434716 -0.899408
vn 0.112360 0.345808 -0.931554
vn 0.135075 0.415717 -0.899408
vn 0.181802 0.314890 -0.931554
vn 0.218555 0.378549 -0.899408
vn 0.243299 0.270211 -0.931554
vn 0.292484 0.324837 -0.899408
vn 0.294162 0.213721 -0.931553
vn 0.353630 0.256927 -0.899408
vn 0.332169 0.147891 -0.931554
vn 0.399321 0.177789 -0.899408
vn 0.989712 -0.000001 0.143073
vn 0.968084 -0.205773 0.143073
vn 0.968085 0.205771 0.143074
vn 0.904147 0.402552 0.143074
vn 0.904146 -0.402553 0.143076
vn 0.800693 -0.581738 0.143076
vn 0.662246 -0.735499 0.143076
vn 0.494856 -0.857116 0.143076
vn 0.305838 -0.941271 0.143078
vn 0.103453 -0.984290 0.143078
vn -0.103453 -0.984290 0.143077
vn -0.305837 -0.941272 0.143075
vn -0.494856 -0.857116 0.143072
vn -0.662246 -0.735500 0.143072
vn -0.800694 -0.581738 0.143074
vn -0.904147 -0.402552 0.143075
vn -0.968084 -0.205773 0.143075
vn -0.989712 -0.000002 0.143075
vn -0.968085 0.205770 0.143076
vn -0.904147 0.402552 0.143075
vn -0.800694 0.581738 0.143075
vn -0.662246 0.735500 0.143076
vn -0.494857 0.857115 0.143075
vn -0.305838 0.941272 0.143074
vn -0.103453 0.984290 0.143075
vn 0.103453 0.984290 0.143074
vn 0.305838 0.941272 0.143073
vn 0.494856 0.857116 0.143074
vn 0.662247 0.735499 0.143074
vn 0.800694 0.581738 0.143074
vn -0.973517 0.206924 -0.097197
vn -0.909220 0.404811 -0.097197
vn -0.995265 -0.000002 -0.097196
vn -0.973516 -0.206927 -0.097197
vn -0.909220 -0.404811 -0.097197
vn -0.805186 -0.585002 -0.097198
vn -0.665962 -0.739626 -0.097199
vn -0.497632 -0.861925 -0.097199
vn -0.307553 -0.946554 -0.097197
vn -0.104033 -0.989813 -0.097195
vn 0.104033 -0.989813 -0.097195
vn 0.307553 -0.946554 -0.097193
vn 0.497631 -0.861926 -0.097193
vn 0.665963 -0.739626 -0.097196
vn 0.805187 -0.585001 -0.097197
vn 0.909219 -0.404812 -0.097197
vn 0.973516 -0.206927 -0.097197
vn 0.995265 -0.000001 -0.097197
vn 0.973517 0.206926 -0.097196
vn 0.909220 0.404811 -0.097197
vn 0.805186 0.585002 -0.097199
vn 0.665962 0.739626 -0.097199
vn 0.497632 0.861925 -0.097198
vn 0.307553 0.946554 -0.097197
vn 0.104034 0.989813 -0.097198
vn -0.104034 0.989813 -0.097198
vn -0.307553 0.946554 -0.097196
vn -0.497634 0.861924 -0.097197
vn -0.665961 0.739627 -0.097198
vn -0.805187 0.585002 -0.097198
vn -0.840842 0.374366 -0.390942
vn -0.840843 0.374369 0.390936
vn -0.744632 0.541007 0.390941
vn -0.744631 0.541007 -0.390942
vn -0.900304 0.191363 -0.390938
vn -0.900304 0.191363 0.390938
vn -0.920417 -0.000002 -0.390938
vn -0.920417 -0.000002 0.390938
vn -0.900304 -0.191366 -0.390938
vn -0.900304 -0.191365 0.390939
vn -0.840843 -0.374367 -0.390938
vn -0.840842 -0.374367 0.390939
vn -0.744633 -0.541008 -0.390938
vn -0.744633 -0.541008 0.390938
vn -0.615879 -0.684003 -0.390937
vn -0.615879 -0.684003 0.390938
vn -0.460209 -0.797105 -0.390936
vn -0.460209 -0.797105 0.390936
vn -0.284424 -0.875370 -0.390935
vn -0.284424 -0.875370 0.390935
vn -0.096210 -0.915377 -0.390934
vn -0.096210 -0.915377 0.390934
vn 0.096211 -0.915378 -0.390931
vn 0.096209 -0.915376 0.390935
vn 0.284426 -0.875372 -0.390929
vn 0.284423 -0.875369 0.390938
vn 0.460209 -0.797107 -0.390933
vn 0.460207 -0.797105 0.390938
vn 0.615877 -0.684003 -0.390943
vn 0.615881 -0.684003 0.390934
vn 0.744630 -0.541006 -0.390945
vn 0.744635 -0.541008 0.390934
vn 0.840842 -0.374368 -0.390939
vn 0.840841 -0.374369 0.390940
vn 0.900305 -0.191367 -0.390936
vn 0.900303 -0.191364 0.390941
vn 0.920418 -0.000000 -0.390936
vn 0.920417 -0.000001 0.390939
vn 0.900304 0.191364 -0.390938
vn 0.900304 0.191365 0.390938
vn 0.840841 0.374366 -0.390943
vn 0.840844 0.374369 0.390935
vn 0.744631 0.541006 -0.390944
vn 0.744634 0.541008 0.390937
vn 0.615878 0.684003 -0.390940
vn 0.615879 0.684003 0.390939
vn 0.460210 0.797106 -0.390933
vn 0.460208 0.797104 0.390940
vn 0.284425 0.875371 -0.390933
vn 0.284424 0.875367 0.390942
vn 0.096210 0.915375 -0.390939
vn 0.096210 0.915374 0.390941
vn -0.096210 0.915375 -0.390939
vn -0.096210 0.915374 0.390940
vn -0.284425 0.875370 -0.390933
vn -0.284424 0.875368 0.390941
vn -0.460210 0.797103 -0.390939
vn -0.460208 0.797102 0.390944
vn -0.615877 0.684002 -0.390944
vn -0.615876 0.684001 0.390946
s 1
g Circular_window Circular_window_Frame
usemtl Window_glassSG
f 277/309/181 279/311/182 185/249/183 183/64/184
f 275/307/185 277/309/181 183/64/184 187/65/186
f 273/305/187 275/307/185 187/65/186 189/66/188
f 271/303/189 273/305/187 189/66/188 191/67/190
f 269/301/191 271/303/189 191/67/190 193/68/192
f 267/299/193 269/301/191 193/68/192 195/69/194
f 265/297/195 267/299/193 195/69/194 197/70/196
f 263/295/197 265/297/195 197/70/196 199/71/198
f 261/293/199 263/295/197 199/71/198 201/72/200
f 259/291/201 261/293/199 201/72/200 203/73/202
f 257/289/203 259/291/201 203/73/202 205/74/204
f 255/287/205 257/289/203 205/74/204 207/75/206
f 253/285/207 255/287/205 207/75/206 209/76/208
f 251/283/209 253/285/207 209/76/208 211/77/210
f 249/281/211 251/283/209 211/77/210 213/78/212
f 247/279/213 249/281/211 213/78/212 215/79/214
f 245/277/215 247/279/213 215/79/214 217/80/216
f 244/275/217 245/277/215 217/80/216 219/81/218
f 301/274/219 244/275/217 219/81/218 221/82/220
f 299/331/221 301/274/219 221/82/220 223/83/222
f 297/329/223 299/331/221 223/83/222 225/84/224
f 295/327/225 297/329/223 225/84/224 227/85/226
f 293/325/227 295/327/225 227/85/226 229/86/228
f 291/323/229 293/325/227 229/86/228 231/87/230
f 289/321/231 291/323/229 231/87/230 233/88/232
f 287/319/233 289/321/231 233/88/232 235/89/234
f 285/317/235 287/319/233 235/89/234 237/90/236
f 283/315/237 285/317/235 237/90/236 239/91/238
f 281/313/239 283/315/237 239/91/238 241/92/240
f 279/311/182 281/313/239 241/92/240 185/249/183
f 63/93/241 64/94/242 126/95/243 124/96/244
f 65/97/245 63/93/241 124/96/244 128/98/246
f 66/99/247 65/97/245 128/98/246 130/100/248
f 67/101/249 66/99/247 130/100/248 132/102/250
f 68/103/251 67/101/249 132/102/250 134/104/252
f 69/105/253 68/103/251 134/104/252 136/106/254
f 70/107/255 69/105/253 136/106/254 138/108/256
f 71/109/257 70/107/255 138/108/256 140/110/258
f 72/111/259 71/109/257 140/110/258 142/112/260
f 73/113/261 72/111/259 142/112/260 144/114/262
f 74/115/263 73/113/261 144/114/262 146/116/264
f 75/117/265 74/115/263 146/116/264 148/118/266
f 76/119/267 75/117/265 148/118/266 150/120/268
f 77/121/269 76/119/267 150/120/268 152/122/270
f 78/123/271 77/121/269 152/122/270 154/124/272
f 79/125/273 78/123/271 154/124/272 156/126/274
f 80/127/275 79/125/273 156/126/274 158/128/276
f 81/129/277 80/127/275 158/128/276 160/130/278
f 82/131/279 81/129/277 160/130/278 162/132/280
f 83/133/281 82/131/279 162/132/280 164/134/282
f 84/135/283 83/133/281 164/134/282 166/136/284
f 85/137/285 84/135/283 166/136/284 168/138/286
f 86/139/287 85/137/285 168/138/286 170/140/288
f 87/141/289 86/139/287 170/140/288 172/142/290
f 88/143/291 87/141/289 172/142/290 174/144/292
f 89/145/293 88/143/291 174/144/292 176/146/294
f 90/147/295 89/145/293 176/146/294 178/148/296
f 91/149/297 90/147/295 178/148/296 180/150/298
f 92/151/299 91/149/297 180/150/298 182/152/300
f 64/94/242 92/151/299 182/152/300 126/95/243
f 93/153/301 94/154/302 184/155/303 186/156/304
f 94/154/302 95/157/305 188/158/306 184/155/303
f 95/157/305 96/159/307 190/160/308 188/158/306
f 96/159/307 97/161/309 192/162/310 190/160/308
f 97/161/309 98/163/311 194/164/312 192/162/310
f 98/163/311 99/165/313 196/166/314 194/164/312
f 99/165/313 100/167/315 198/168/316 196/166/314
f 100/167/315 101/169/317 200/170/318 198/168/316
f 101/169/317 102/171/319 202/172/320 200/170/318
f 102/171/319 103/173/321 204/174/322 202/172/320
f 103/173/321 104/175/323 206/176/324 204/174/322
f 104/175/323 105/177/325 208/178/326 206/176/324
f 105/177/325 106/179/327 210/180/328 208/178/326
f 106/179/327 107/181/329 212/182/330 210/180/328
f 107/181/329 108/183/331 214/184/332 212/182/330
f 108/183/331 109/185/333 216/186/334 214/184/332
f 109/185/333 110/187/335 218/188/336 216/186/334
f 110/187/335 111/189/337 220/190/338 218/188/336
f 111/189/337 112/191/339 222/192/340 220/190/338
f 112/191/339 113/193/341 224/194/342 222/192/340
f 113/193/341 114/195/343 226/196/344 224/194/342
f 114/195/343 115/197/345 228/198/346 226/196/344
f 115/197/345 116/199/347 230/200/348 228/198/346
f 116/199/347 117/201/349 232/202/350 230/200/348
f 117/201/349 118/203/351 234/204/352 232/202/350
f 118/203/351 119/205/353 236/206/354 234/204/352
f 119/205/353 120/207/355 238/208/356 236/206/354
f 120/207/355 121/209/357 240/210/358 238/208/356
f 121/209/357 122/211/359 242/212/360 240/210/358
f 122/211/359 93/153/301 186/156/304 242/212/360
f 124/96/244 123/247/361 127/245/362 128/98/246
f 123/247/361 124/96/244 126/95/243 125/63/363
f 125/63/363 126/95/243 182/152/300 181/251/364
f 128/98/246 127/245/362 129/243/365 130/100/248
f 130/100/248 129/243/365 131/241/366 132/102/250
f 132/102/250 131/241/366 133/239/367 134/104/252
f 134/104/252 133/239/367 135/237/368 136/106/254
f 136/106/254 135/237/368 137/235/369 138/108/256
f 138/108/256 137/235/369 139/233/370 140/110/258
f 140/110/258 139/233/370 141/231/371 142/112/260
f 142/112/260 141/231/371 143/229/372 144/114/262
f 144/114/262 143/229/372 145/227/373 146/116/264
f 146/116/264 145/227/373 147/225/374 148/118/266
f 148/118/266 147/225/374 149/223/375 150/120/268
f 150/120/268 149/223/375 151/221/376 152/122/270
f 152/122/270 151/221/376 153/219/377 154/124/272
f 154/124/272 153/219/377 155/217/378 156/126/274
f 156/126/274 155/217/378 157/215/379 158/128/276
f 158/128/276 157/215/379 159/213/380 160/130/278
f 160/130/278 159/213/380 161/271/381 162/132/280
f 162/132/280 161/271/381 163/269/382 164/134/282
f 164/134/282 163/269/382 165/267/383 166/136/284
f 166/136/284 165/267/383 167/265/384 168/138/286
f 168/138/286 167/265/384 169/263/385 170/140/288
f 170/140/288 169/263/385 171/261/386 172/142/290
f 172/142/290 171/261/386 173/259/387 174/144/292
f 174/144/292 173/259/387 175/257/388 176/146/294
f 176/146/294 175/257/388 177/255/389 178/148/296
f 178/148/296 177/255/389 179/253/390 180/150/298
f 180/150/298 179/253/390 181/251/364 182/152/300
f 184/155/303 183/64/184 185/249/183 186/156/304
f 183/64/184 184/155/303 188/158/306 187/65/186
f 186/156/304 185/249/183 241/92/240 242/212/360
f 187/65/186 188/158/306 190/160/308 189/66/188
f 189/66/188 190/160/308 192/162/310 191/67/190
f 191/67/190 192/162/310 194/164/312 193/68/192
f 193/68/192 194/164/312 196/166/314 195/69/194
f 195/69/194 196/166/314 198/168/316 197/70/196
f 197/70/196 198/168/316 200/170/318 199/71/198
f 199/71/198 200/170/318 202/172/320 201/72/200
f 201/72/200 202/172/320 204/174/322 203/73/202
f 203/73/202 204/174/322 206/176/324 205/74/204
f 205/74/204 206/176/324 208/178/326 207/75/206
f 207/75/206 208/178/326 210/180/328 209/76/208
f 209/76/208 210/180/328 212/182/330 211/77/210
f 211/77/210 212/182/330 214/184/332 213/78/212
f 213/78/212 214/184/332 216/186/334 215/79/214
f 215/79/214 216/186/334 218/188/336 217/80/216
f 217/80/216 218/188/336 220/190/338 219/81/218
f 219/81/218 220/190/338 222/192/340 221/82/220
f 221/82/220 222/192/340 224/194/342 223/83/222
f 223/83/222 224/194/342 226/196/344 225/84/224
f 225/84/224 226/196/344 228/198/346 227/85/226
f 227/85/226 228/198/346 230/200/348 229/86/228
f 229/86/228 230/200/348 232/202/350 231/87/230
f 231/87/230 232/202/350 234/204/352 233/88/232
f 233/88/232 234/204/352 236/206/354 235/89/234
f 235/89/234 236/206/354 238/208/356 237/90/236
f 237/90/236 238/208/356 240/210/358 239/91/238
f 239/91/238 240/210/358 242/212/360 241/92/240
f 159/213/380 157/215/379 246/216/391 243/214/392
f 157/215/379 155/217/378 248/218/393 246/216/391
f 155/217/378 153/219/377 250/220/394 248/218/393
f 153/219/377 151/221/376 252/222/395 250/220/394
f 151/221/376 149/223/375 254/224/396 252/222/395
f 149/223/375 147/225/374 256/226/397 254/224/396
f 147/225/374 145/227/373 258/228/398 256/226/397
f 145/227/373 143/229/372 260/230/399 258/228/398
f 143/229/372 141/231/371 262/232/400 260/230/399
f 141/231/371 139/233/370 264/234/401 262/232/400
f 139/233/370 137/235/369 266/236/402 264/234/401
f 137/235/369 135/237/368 268/238/403 266/236/402
f 135/237/368 133/239/367 270/240/404 268/238/403
f 133/239/367 131/241/366 272/242/405 270/240/404
f 131/241/366 129/243/365 274/244/406 272/242/405
f 129/243/365 127/245/362 276/246/407 274/244/406
f 127/245/362 123/247/361 278/248/408 276/246/407
f 123/247/361 125/63/363 280/250/409 278/248/408
f 125/63/363 181/251/364 282/252/410 280/250/409
f 181/251/364 179/253/390 284/254/411 282/252/410
f 179/253/390 177/255/389 286/256/412 284/254/411
f 177/255/389 175/257/388 288/258/413 286/256/412
f 175/257/388 173/259/387 290/260/414 288/258/413
f 173/259/387 171/261/386 292/262/415 290/260/414
f 171/261/386 169/263/385 294/264/416 292/262/415
f 169/263/385 167/265/384 296/266/417 294/264/416
f 167/265/384 165/267/383 298/268/418 296/266/417
f 165/267/383 163/269/382 300/270/419 298/268/418
f 163/269/382 161/271/381 302/272/420 300/270/419
f 161/271/381 159/213/380 243/214/392 302/272/420
f 303/336/421 304/333/422 305/334/423 306/335/424
f 304/333/422 303/336/421 307/337/425 308/338/426
f 308/338/426 307/337/425 309/339/427 310/340/428
f 310/340/428 309/339/427 311/341/429 312/342/430
f 312/342/430 311/341/429 313/343/431 314/344/432
f 314/344/432 313/343/431 315/345/433 316/346/434
f 316/346/434 315/345/433 317/347/435 318/348/436
f 318/348/436 317/347/435 319/349/437 320/350/438
f 320/350/438 319/349/437 321/351/439 322/352/440
f 322/352/440 321/351/439 323/353/441 324/354/442
f 324/354/442 323/353/441 325/355/443 326/356/444
f 326/356/444 325/355/443 327/357/445 328/358/446
f 328/358/446 327/357/445 329/359/447 330/360/448
f 330/360/448 329/359/447 331/361/449 332/362/450
f 332/362/450 331/361/449 333/273/451 334/332/452
f 334/332/452 333/273/451 335/330/453 336/328/454
f 336/328/454 335/330/453 337/326/455 338/324/456
f 338/324/456 337/326/455 339/322/457 340/320/458
f 340/320/458 339/322/457 341/318/459 342/316/460
f 342/316/460 341/318/459 343/314/461 344/312/462
f 344/312/462 343/314/461 345/310/463 346/308/464
f 346/308/464 345/310/463 347/306/465 348/304/466
f 348/304/466 347/306/465 349/302/467 350/300/468
f 350/300/468 349/302/467 351/298/469 352/296/470
f 352/296/470 351/298/469 353/294/471 354/292/472
f 354/292/472 353/294/471 355/290/473 356/288/474
f 356/288/474 355/290/473 357/286/475 358/284/476
f 358/284/476 357/286/475 359/282/477 360/280/478
f 360/280/478 359/282/477 361/278/479 362/276/480
f 362/276/480 361/278/479 306/335/424 305/334/423
f 244/275/217 301/274/219 305/334/423 304/333/422
f 302/272/420 243/214/392 303/336/421 306/335/424
f 243/214/392 246/216/391 307/337/425 303/336/421
f 245/277/215 244/275/217 304/333/422 308/338/426
f 246/216/391 248/218/393 309/339/427 307/337/425
f 247/279/213 245/277/215 308/338/426 310/340/428
f 248/218/393 250/220/394 311/341/429 309/339/427
f 249/281/211 247/279/213 310/340/428 312/342/430
f 250/220/394 252/222/395 313/343/431 311/341/429
f 251/283/209 249/281/211 312/342/430 314/344/432
f 252/222/395 254/224/396 315/345/433 313/343/431
f 253/285/207 251/283/209 314/344/432 316/346/434
f 254/224/396 256/226/397 317/347/435 315/345/433
f 255/287/205 253/285/207 316/346/434 318/348/436
f 256/226/397 258/228/398 319/349/437 317/347/435
f 257/289/203 255/287/205 318/348/436 320/350/438
f 258/228/398 260/230/399 321/351/439 319/349/437
f 259/291/201 257/289/203 320/350/438 322/352/440
f 260/230/399 262/232/400 323/353/441 321/351/439
f 261/293/199 259/291/201 322/352/440 324/354/442
f 262/232/400 264/234/401 325/355/443 323/353/441
f 263/295/197 261/293/199 324/354/442 326/356/444
f 264/234/401 266/236/402 327/357/445 325/355/443
f 265/297/195 263/295/197 326/356/444 328/358/446
f 266/236/402 268/238/403 329/359/447 327/357/445
f 267/299/193 265/297/195 328/358/446 330/360/448
f 268/238/403 270/240/404 331/361/449 329/359/447
f 269/301/191 267/299/193 330/360/448 332/362/450
f 270/240/404 272/242/405 333/273/451 331/361/449
f 271/303/189 269/301/191 332/362/450 334/332/452
f 272/242/405 274/244/406 335/330/453 333/273/451
f 273/305/187 271/303/189 334/332/452 336/328/454
f 274/244/406 276/246/407 337/326/455 335/330/453
f 275/307/185 273/305/187 336/328/454 338/324/456
f 276/246/407 278/248/408 339/322/457 337/326/455
f 277/309/181 275/307/185 338/324/456 340/320/458
f 278/248/408 280/250/409 341/318/459 339/322/457
f 279/311/182 277/309/181 340/320/458 342/316/460
f 280/250/409 282/252/410 343/314/461 341/318/459
f 281/313/239 279/311/182 342/316/460 344/312/462
f 282/252/410 284/254/411 345/310/463 343/314/461
f 283/315/237 281/313/239 344/312/462 346/308/464
f 284/254/411 286/256/412 347/306/465 345/310/463
f 285/317/235 283/315/237 346/308/464 348/304/466
f 286/256/412 288/258/413 349/302/467 347/306/465
f 287/319/233 285/317/235 348/304/466 350/300/468
f 288/258/413 290/260/414 351/298/469 349/302/467
f 289/321/231 287/319/233 350/300/468 352/296/470
f 290/260/414 292/262/415 353/294/471 351/298/469
f 291/323/229 289/321/231 352/296/470 354/292/472
f 292/262/415 294/264/416 355/290/473 353/294/471
f 293/325/227 291/323/229 354/292/472 356/288/474
f 294/264/416 296/266/417 357/286/475 355/290/473
f 295/327/225 293/325/227 356/288/474 358/284/476
f 296/266/417 298/268/418 359/282/477 357/286/475
f 297/329/223 295/327/225 358/284/476 360/280/478
f 298/268/418 300/270/419 361/278/479 359/282/477
f 299/331/221 297/329/223 360/280/478 362/276/480
f 300/270/419 302/272/420 306/335/424 361/278/479
f 301/274/219 299/331/221 362/276/480 305/334/423
