# Blender v3.0.0 OBJ File: 'rock2.blend'
# www.blender.org
mtllib rock2.mtl
o cubelowpoly_Cube.001
v 0.522169 0.519013 -0.674259
v 1.034587 0.355798 0.575199
v -0.754316 -0.570864 -0.348772
v -0.656429 -0.632147 0.279193
v -0.529104 -0.554568 0.536842
v 0.031326 -0.661645 -0.976786
v -0.262369 -0.684693 -0.942146
v -0.328105 -0.738180 -0.760448
v -0.482890 -0.717777 -0.613915
v 0.630565 0.426627 -0.667397
v 0.560847 0.274396 -0.767156
v -0.562266 -0.420689 0.653649
v -0.562544 -0.093769 0.826212
v -0.523625 0.066382 0.905200
v 0.685720 -0.432714 0.904036
v 0.555283 -0.605516 0.677232
v -0.757579 0.511127 -0.449413
v -0.873175 -0.154200 -0.537026
v -0.834451 -0.321397 -0.490862
v 0.962338 0.370723 0.786323
v 0.604069 0.628075 0.814394
v -0.128215 0.728045 0.784002
v 0.795875 0.539521 -0.381158
v 0.870166 0.553966 -0.214504
v 0.883982 0.608404 -0.023514
v -0.406015 -0.613687 0.606616
v -0.181485 -0.735123 0.578673
v -0.008415 -0.638945 0.828084
v 0.193233 -0.699918 0.731095
v 0.324108 -0.695085 0.688693
v -0.643113 0.701822 0.150111
v -0.712675 0.651680 0.056406
v -0.367176 0.626633 -0.547070
v 0.205387 0.598547 -0.689021
v 0.412277 0.562434 -0.688426
v 0.610689 -0.813934 0.166007
v 0.609434 -0.795723 -0.233557
v 0.316730 -0.812348 -0.624042
v -0.328348 0.735537 -0.456250
v 0.551214 0.723762 -0.323878
v -0.505706 0.762787 -0.312100
v 0.181269 0.900541 -0.022314
v 0.034653 0.910821 -0.077991
v -0.215174 0.878999 0.320416
v -0.002186 0.857519 0.585771
v 0.575554 -0.393118 1.021070
v 0.744730 -0.048075 1.166468
v 0.949925 0.260008 0.970017
v 0.263117 -0.580842 0.929197
v 0.343229 -0.196002 1.216038
v 0.695678 0.294897 1.148366
v 0.122892 -0.490280 1.023089
v 0.094161 -0.283425 1.171522
v 0.208176 -0.018870 1.299620
v 0.252935 0.445946 1.179726
v -0.130768 -0.563352 0.890927
v -0.094894 -0.361475 1.077211
v -0.275967 0.160551 1.130385
v -0.335057 -0.283188 0.988436
v -0.228101 0.303962 1.117255
v -0.599842 0.487390 0.634395
v -0.804749 0.058542 0.463487
v -0.842501 0.190636 0.383398
v -0.901319 0.037198 0.264680
v -0.909774 -0.369167 0.009500
v -0.985651 0.324905 -0.053969
v -1.030166 0.152589 -0.240126
v -0.500132 -0.853707 -0.146485
v -0.329605 -0.911861 -0.249605
v 0.185121 -0.964897 -0.278587
v -0.445841 -0.874743 -0.039747
v -0.476011 -0.767509 0.257753
v 0.417812 -0.852020 0.226560
v -0.047500 -0.901019 0.249719
v 0.356695 -0.788518 0.463082
v 0.762686 -0.694752 0.006763
v 0.880871 -0.254413 -0.283828
v 0.929620 0.300352 -0.351617
v 0.883695 -0.488328 0.197613
v 0.926004 -0.394955 0.078851
v -0.588583 -0.518815 -0.720036
v -0.273943 0.296901 -0.803018
v -0.236040 0.440051 -0.734728
v -0.185862 -0.465269 -1.082326
v -0.080343 -0.246026 -1.068831
v -0.025671 -0.426424 -1.107812
v 0.067856 -0.180250 -1.054592
v 0.343577 0.432830 -0.793225
v 0.315723 -0.736200 -0.716945
v -0.516538 0.279857 0.870315
v -0.483174 0.602111 0.689837
v 1.031541 0.249734 0.825679
v 1.050882 0.120272 0.874506
v 1.037622 -0.061444 0.862521
v 0.853402 -0.284358 0.915137
v 0.718835 -0.479618 0.727192
v -0.929689 0.228957 -0.451121
v -0.872917 0.028472 -0.554538
v 0.160276 0.705031 0.845904
v 0.993761 0.452191 0.359731
v -0.005965 -0.757088 0.621695
v -0.500008 0.639875 0.615079
v -0.549157 0.704890 0.376456
v -0.774841 0.640994 -0.120252
v -0.754749 0.619837 -0.293874
v 0.643360 -0.586366 0.598729
v 0.595613 -0.842411 -0.036273
v 0.473622 -0.768397 -0.513285
v 0.278586 0.692271 -0.580938
v 0.065448 0.723160 -0.572412
v -0.099143 0.752325 -0.515500
v 0.376609 0.749136 -0.428664
v -0.062520 0.837893 -0.352221
v -0.298383 0.804055 -0.362524
v 0.198465 0.785725 -0.444201
v -0.273008 0.846770 -0.249838
v -0.428686 0.819849 -0.215395
v 0.283277 0.850481 -0.201904
v -0.182673 0.897186 -0.038180
v 0.522336 0.786640 -0.151833
v -0.479988 0.812477 0.005479
v 0.426468 0.856722 0.111124
v -0.318778 0.865772 0.012273
v 0.017233 0.915224 0.208840
v -0.463250 0.775993 0.320689
v 0.642247 0.769548 0.258991
v 0.313331 0.893651 0.249567
v -0.322571 0.821265 0.432005
v 0.787092 0.682083 0.245746
v 0.364044 0.824186 0.497898
v -0.173545 0.836008 0.559608
v -0.661197 0.561986 -0.469767
v -0.632290 0.728482 -0.164371
v 0.317311 0.740553 0.739166
v 0.728133 0.626684 0.604487
v 0.732884 0.711874 -0.086486
v 0.671152 0.561484 -0.516820
v 0.510089 0.611277 -0.581953
v 0.412297 -0.625055 0.783769
v 0.858714 0.142493 1.112936
v 0.537600 0.030329 1.260086
v 0.713853 0.112120 1.204223
v 0.607293 0.495601 1.026419
v 0.409724 0.232446 1.263808
v 0.467181 0.366554 1.186309
v 0.222180 0.277861 1.265398
v -0.070709 -0.205409 1.176936
v 0.048528 -0.006336 1.273717
v 0.105662 0.382760 1.208499
v 0.052739 0.289473 1.234533
v 0.051202 0.540150 1.044109
v -0.217511 -0.327498 1.048580
v -0.211545 -0.097432 1.152214
v -0.323060 -0.044866 1.092082
v -0.431620 -0.067517 1.000719
v -0.469210 -0.438550 0.747421
v -0.487198 -0.268249 0.842048
v -0.424122 0.190300 1.007934
v 0.490955 -0.516478 0.909078
v 0.769049 -0.274807 1.019857
v 0.970492 -0.007889 0.987785
v 0.852206 0.372610 0.987237
v 0.481403 0.591172 0.951472
v -0.143097 0.584161 0.962305
v -0.424772 0.545731 0.809444
v -0.248317 -0.514987 0.869223
v -0.683408 0.161895 0.655939
v -0.739794 -0.284602 0.458736
v -0.687650 -0.170823 0.620487
v -0.595843 0.555260 0.573896
v -0.763650 -0.521922 0.255023
v -0.854108 -0.372588 0.240860
v -0.854799 -0.462669 0.130493
v -0.836686 -0.110352 0.335107
v -0.862958 0.376124 0.228749
v -0.869918 -0.223951 0.255028
v -0.961557 -0.188210 0.003927
v -1.002365 -0.016369 -0.000865
v -1.013819 0.136459 -0.003419
v -0.850519 0.478041 0.127790
v -0.887957 -0.408650 -0.153650
v -1.024784 -0.014355 -0.179961
v -0.904083 0.465617 -0.230069
v -1.003920 -0.085271 -0.234094
v -0.988555 0.290317 -0.278107
v -0.877091 0.457915 -0.337863
v -0.983581 -0.073702 -0.352510
v -0.650708 -0.464265 0.465253
v -0.638651 -0.025713 0.737196
v -0.748334 0.600038 0.173326
v -0.955790 0.024510 -0.454336
v -0.787371 -0.532381 -0.246268
v -0.758167 -0.618211 0.057095
v -0.370132 -0.819530 -0.555924
v -0.048159 -0.847687 -0.736585
v -0.085931 -0.902039 -0.603369
v 0.153459 -0.915851 -0.523110
v -0.536259 -0.797114 -0.342076
v -0.477521 -0.829448 -0.274719
v -0.322078 -0.891406 -0.415345
v -0.115282 -0.981986 -0.225809
v -0.113151 -0.976170 -0.296607
v -0.223232 -0.923244 -0.077261
v 0.147136 -0.967450 -0.145372
v -0.031540 -0.956942 -0.030864
v 0.229099 -0.929637 0.098570
v 0.407997 -0.912057 -0.013180
v -0.537332 -0.798590 0.078226
v -0.162262 -0.922761 0.093706
v -0.388469 -0.820666 0.179645
v -0.307932 -0.899537 0.060390
v 0.060336 -0.943334 0.106420
v 0.213763 -0.854081 0.387831
v 0.544573 -0.746830 0.341948
v -0.236409 -0.828838 0.274755
v -0.419544 -0.749064 0.364532
v -0.309312 -0.732688 0.474873
v 0.047199 -0.829061 0.455033
v -0.203420 -0.871463 -0.600474
v 0.133247 -0.774904 -0.791283
v 0.395801 -0.878643 -0.410512
v 0.494032 -0.881710 -0.215401
v 0.713568 -0.675623 0.285245
v 0.581790 -0.662572 0.471110
v -0.696621 -0.688280 0.009550
v -0.694446 -0.684577 -0.208322
v -0.606745 -0.671483 -0.501789
v 0.601360 -0.322345 -0.714893
v 0.769322 0.292042 -0.594401
v 0.655751 -0.620021 -0.436698
v 0.723363 -0.597865 -0.358829
v 0.719252 -0.406391 -0.533328
v 0.824181 0.202632 -0.538313
v 0.809302 0.427422 -0.487373
v 0.834810 -0.535192 -0.065167
v 0.934382 -0.123066 -0.251954
v 0.926382 0.114939 -0.362825
v 0.743463 -0.723020 0.093206
v 0.962680 -0.223412 -0.100035
v 0.936921 0.421858 -0.252753
v 1.022998 -0.023915 -0.128269
v 1.046300 0.249072 -0.045154
v 0.852129 -0.483911 0.339287
v 0.961299 -0.359325 0.336254
v 1.064760 -0.096635 0.142439
v 1.027938 0.088967 -0.166143
v 1.058789 -0.158641 0.337022
v 1.040004 0.382456 0.087270
v 0.782385 -0.478236 0.534982
v 1.131735 0.136463 0.292536
v 1.125607 -0.023152 0.549072
v 1.049771 0.389356 0.244621
v 1.122455 0.237975 0.350982
v 0.414877 -0.619885 -0.734008
v 0.509309 -0.480574 -0.740311
v 0.814988 0.059170 -0.536834
v 0.944579 0.526505 -0.034907
v 1.118754 0.115446 0.676538
v 1.055118 -0.165971 0.656135
v 0.865921 -0.378803 0.687399
v 0.733654 -0.571537 0.436443
v -0.690780 -0.235421 -0.723300
v -0.723455 -0.031934 -0.689599
v -0.758681 0.277230 -0.576628
v -0.647946 0.445208 -0.563828
v -0.589083 -0.410858 -0.789545
v -0.422775 -0.147745 -0.909464
v -0.557986 0.095816 -0.767566
v -0.401140 -0.436900 -0.930455
v -0.495952 -0.271014 -0.880028
v -0.359767 -0.030884 -0.906728
v -0.262261 -0.613639 -1.006728
v -0.209255 -0.544795 -1.075746
v -0.040009 0.152113 -0.912301
v -0.077330 0.303892 -0.856242
v -0.117313 -0.624467 -1.061909
v -0.063049 -0.545435 -1.092244
v 0.169368 0.432822 -0.805104
v 0.258799 0.198324 -0.915809
v 0.077410 -0.477082 -1.063950
v 0.092973 -0.298900 -1.074705
v 0.216605 -0.157022 -1.014233
v 0.302516 -0.332162 -0.950274
v 0.396220 -0.124304 -0.928865
v 0.412912 0.241666 -0.866568
v -0.724382 -0.381896 -0.625063
v -0.060915 0.577696 -0.684445
v 0.502186 -0.210412 -0.818363
v 0.342436 -0.541758 -0.851700
v -0.142284 -0.690307 -0.991962
v -0.428354 -0.600150 -0.825238
v -0.683752 -0.567836 -0.522632
v 0.295646 -0.488202 1.040894
v 0.541205 0.016516 -0.820007
vt 0.968616 0.613524
vt 0.994228 0.596374
vt 0.975612 0.648939
vt 0.966563 0.560225
vt 0.641617 0.345425
vt 0.619577 0.318543
vt 0.658129 0.289478
vt 0.575253 0.345568
vt 0.615642 0.376702
vt 0.516294 0.339868
vt 0.539873 0.320469
vt 0.410214 0.381244
vt 0.420621 0.346108
vt 0.446275 0.385670
vt 0.446768 0.339392
vt 0.577871 0.278606
vt 0.491252 0.286684
vt 0.544309 0.261065
vt 0.473879 0.343487
vt 0.611934 0.232765
vt 0.442005 0.276021
vt 0.462789 0.212390
vt 0.402220 0.282928
vt 0.386381 0.272402
vt 0.417193 0.256981
vt 0.610431 0.152938
vt 0.644986 0.221428
vt 0.539199 0.206503
vt 0.517425 0.157759
vt 0.571604 0.120082
vt 0.381445 0.220065
vt 0.434315 0.225454
vt 0.674828 0.399969
vt 0.660131 0.389238
vt 0.688040 0.364620
vt 0.612339 0.407283
vt 0.652945 0.411646
vt 0.960418 0.692319
vt 0.988567 0.687041
vt 0.972221 0.728641
vt 0.933034 0.648705
vt 0.920302 0.579542
vt 0.947490 0.569662
vt 0.386176 0.320384
vt 0.381206 0.202435
vt 0.432312 0.173183
vt 0.482456 0.143872
vt 0.540801 0.098434
vt 0.655461 0.088432
vt 0.685596 0.123500
vt 0.688455 0.173060
vt 0.687571 0.262266
vt 0.702255 0.330481
vt 0.702623 0.295676
vt 0.594643 0.888622
vt 0.545368 0.900829
vt 0.617539 0.854614
vt 0.526028 0.874838
vt 0.571972 0.835567
vt 0.625400 0.017062
vt 0.583423 0.029505
vt 0.593537 0.005772
vt 0.645990 0.046912
vt 0.619859 0.056542
vt 0.655034 0.789220
vt 0.633749 0.775052
vt 0.666045 0.730061
vt 0.634603 0.807475
vt 0.532858 0.821200
vt 0.588546 0.786675
vt 0.482813 0.852826
vt 0.533973 0.039755
vt 0.525542 0.019345
vt 0.648432 0.715566
vt 0.570800 0.758274
vt 0.604343 0.742796
vt 0.596569 0.718014
vt 0.637620 0.692457
vt 0.468194 0.786696
vt 0.464232 0.724127
vt 0.493474 0.717093
vt 0.449591 0.793155
vt 0.547422 0.730755
vt 0.536286 0.704418
vt 0.408698 0.721925
vt 0.587098 0.690608
vt 0.621357 0.639973
vt 0.584549 0.647459
vt 0.541227 0.675075
vt 0.487570 0.677327
vt 0.228219 0.411203
vt 0.230527 0.429877
vt 0.194351 0.415384
vt 0.335489 0.401826
vt 0.357402 0.414327
vt 0.315688 0.436584
vt 0.672562 0.069092
vt 0.564202 0.070873
vt 0.490044 0.058177
vt 0.457240 0.101379
vt 0.581633 0.391979
vt 0.570385 0.419560
vt 0.523274 0.392486
vt 0.416197 0.655207
vt 0.381206 0.704695
vt 0.513803 0.648260
vt 0.547797 0.632501
vt 0.618038 0.613111
vt 0.660166 0.635288
vt 0.312392 0.538699
vt 0.293570 0.587869
vt 0.295772 0.517785
vt 0.265219 0.506752
vt 0.229886 0.527435
vt 0.219082 0.493105
vt 0.198364 0.466631
vt 0.242752 0.465497
vt 0.194310 0.485000
vt 0.429061 0.604781
vt 0.491909 0.533847
vt 0.469910 0.645714
vt 0.628765 0.576461
vt 0.610812 0.515604
vt 0.642488 0.533049
vt 0.590693 0.560127
vt 0.579571 0.514473
vt 0.555196 0.529330
vt 0.518682 0.549381
vt 0.524847 0.510147
vt 0.415762 0.598759
vt 0.455146 0.513054
vt 0.574582 0.470292
vt 0.612606 0.479950
vt 0.538539 0.462652
vt 0.506681 0.460423
vt 0.435362 0.504015
vt 0.468383 0.459828
vt 0.296243 0.757042
vt 0.268204 0.775812
vt 0.300297 0.724317
vt 0.355616 0.498011
vt 0.323935 0.487899
vt 0.355616 0.448127
vt 0.304910 0.829716
vt 0.290625 0.829359
vt 0.312392 0.779539
vt 0.506246 0.431104
vt 0.234171 0.767583
vt 0.271700 0.845968
vt 0.217770 0.828336
vt 0.305930 0.853960
vt 0.852216 0.480506
vt 0.800776 0.497312
vt 0.813812 0.464538
vt 0.565390 0.587440
vt 0.534124 0.609182
vt 0.495757 0.592309
vt 0.405504 0.631583
vt 0.398469 0.620283
vt 0.410293 0.527162
vt 0.387601 0.584996
vt 0.894725 0.486857
vt 0.855576 0.463393
vt 0.225625 0.854289
vt 0.213024 0.775978
vt 0.179815 0.830819
vt 0.218037 0.737990
vt 0.267880 0.710864
vt 0.248624 0.704938
vt 0.283368 0.664417
vt 0.647690 0.605838
vt 0.666045 0.554584
vt 0.128745 0.772340
vt 0.115132 0.741837
vt 0.170429 0.730385
vt 0.124053 0.708818
vt 0.005772 0.674347
vt 0.038343 0.668707
vt 0.041441 0.729971
vt 0.169602 0.710670
vt 0.147265 0.682811
vt 0.189574 0.691731
vt 0.105783 0.659617
vt 0.115692 0.648638
vt 0.062762 0.709391
vt 0.065371 0.623813
vt 0.020657 0.627230
vt 0.188084 0.634486
vt 0.195487 0.667546
vt 0.132028 0.611746
vt 0.155253 0.643588
vt 0.089406 0.607764
vt 0.072700 0.562788
vt 0.113514 0.564770
vt 0.033447 0.586214
vt 0.220592 0.632491
vt 0.229274 0.666760
vt 0.247038 0.635287
vt 0.170287 0.610790
vt 0.073264 0.521057
vt 0.107897 0.530601
vt 0.211282 0.600021
vt 0.254685 0.614281
vt 0.160108 0.529309
vt 0.195100 0.540332
vt 0.176483 0.575962
vt 0.138523 0.581660
vt 0.128278 0.321017
vt 0.108842 0.345113
vt 0.090853 0.304011
vt 0.250616 0.555899
vt 0.153830 0.340962
vt 0.134310 0.382374
vt 0.178578 0.794501
vt 0.164889 0.773537
vt 0.084618 0.775073
vt 0.081891 0.725027
vt 0.094514 0.212479
vt 0.068943 0.220471
vt 0.048860 0.180658
vt 0.095868 0.254235
vt 0.113505 0.292113
vt 0.066175 0.261066
vt 0.154522 0.307232
vt 0.180335 0.361500
vt 0.172490 0.377027
vt 0.160614 0.397327
vt 0.254878 0.586418
vt 0.304834 0.617628
vt 0.133535 0.175646
vt 0.140752 0.254637
vt 0.118593 0.161002
vt 0.149699 0.084908
vt 0.247481 0.096077
vt 0.156886 0.127993
vt 0.277980 0.127820
vt 0.213365 0.168501
vt 0.273338 0.085887
vt 0.237117 0.203490
vt 0.171844 0.230368
vt 0.243396 0.166303
vt 0.280332 0.067891
vt 0.313854 0.079961
vt 0.311255 0.117104
vt 0.213392 0.250052
vt 0.199416 0.279285
vt 0.294489 0.169588
vt 0.276399 0.184836
vt 0.282841 0.243567
vt 0.338629 0.128097
vt 0.330924 0.182372
vt 0.237345 0.298514
vt 0.204835 0.306323
vt 0.183028 0.329878
vt 0.282163 0.285971
vt 0.298119 0.349003
vt 0.338487 0.257622
vt 0.324190 0.318993
vt 0.209622 0.343344
vt 0.213608 0.380259
vt 0.243749 0.367421
vt 0.721666 0.217583
vt 0.711238 0.187630
vt 0.725769 0.153363
vt 0.111470 0.089725
vt 0.070223 0.153866
vt 0.078051 0.099406
vt 0.246810 0.032402
vt 0.196955 0.039794
vt 0.285853 0.042276
vt 0.699916 0.386515
vt 0.719436 0.342462
vt 0.369662 0.163602
vt 0.360857 0.198929
vt 0.707959 0.083649
vt 0.680228 0.050164
vt 0.354702 0.334205
vt 0.325976 0.381925
vt 0.271525 0.405303
vt 0.138663 0.273299
vt 0.139632 0.817779
vt 0.135578 0.837748
vt 0.097334 0.808333
vt 0.699499 0.585077
vt 0.725522 0.593635
vt 0.699586 0.627786
vt 0.761464 0.573078
vt 0.730004 0.645729
vt 0.796604 0.602298
vt 0.758051 0.654368
vt 0.705852 0.676414
vt 0.857534 0.642334
vt 0.785308 0.658032
vt 0.713683 0.730955
vt 0.764027 0.734774
vt 0.847293 0.701627
vt 0.890041 0.632946
vt 0.874194 0.680642
vt 0.033212 0.826050
vt 0.017606 0.806527
vt 0.047029 0.815667
vt 0.734086 0.758301
vt 0.789925 0.754134
vt 0.921993 0.708684
vt 0.882289 0.749112
vt 0.735704 0.773283
vt 0.709454 0.756943
vt 0.769489 0.767180
vt 0.809085 0.772995
vt 0.082935 0.005772
vt 0.105021 0.035358
vt 0.050896 0.020121
vt 0.123415 0.009403
vt 0.151849 0.026310
vt 0.905991 0.766740
vt 0.834558 0.791363
vt 0.937994 0.736290
vt 0.731746 0.537728
vt 0.764723 0.529597
vt 0.868172 0.510033
vt 0.819847 0.537251
vt 0.885310 0.525526
vt 0.861181 0.544866
vt 0.967494 0.770087
vt 0.929210 0.778254
vt 0.077915 0.069880
vt 0.018897 0.049480
vt 0.048762 0.109526
vt 0.019605 0.095161
vt 0.027619 0.793064
vt 0.005897 0.773437
vt 0.942520 0.522359
vt 0.981237 0.549314
vt 0.963795 0.521042
vt 0.482403 0.405308
vt 0.476076 0.385340
vt 0.930876 0.486511
vt 0.974582 0.747714
vt 0.994228 0.730130
vt 0.383340 0.338712
vt 0.385743 0.374991
vt 0.903833 0.462692
vt 0.339898 0.530390
vt 0.335765 0.590192
vt 0.323935 0.574941
vt 0.386409 0.172748
vt 0.186958 0.436584
vt 0.161379 0.420713
vt 0.210033 0.448127
vt 0.507420 0.915019
vt 0.511285 0.899685
vt 0.473827 0.890331
vt 0.529184 0.790189
vt 0.471698 0.819988
vt 0.438113 0.815915
vt 0.456424 0.854353
vt 0.464397 0.056712
vt 0.424776 0.130625
vt 0.270504 0.424015
vt 0.359654 0.371757
vt 0.630973 0.503107
vt 0.540242 0.438693
vt 0.877063 0.431104
vt 0.829479 0.437731
vt 0.760649 0.504705
vt 0.786257 0.460981
vt 0.744181 0.494023
vt 0.390344 0.543154
vt 0.326277 0.605649
vt 0.339898 0.636580
vt 0.324159 0.518847
vt 0.301341 0.689906
vt 0.040709 0.133077
vt 0.011848 0.157869
vt 0.153172 0.507302
vt 0.052394 0.799723
vt 0.011097 0.723869
vt 0.153560 0.055442
vt 0.358481 0.261860
vt 0.725769 0.290466
vt 0.704551 0.255629
vt 0.682585 0.717952
vt 0.677588 0.669060
vt 0.697211 0.730744
vt 0.087109 0.835353
vt 0.005772 0.028160
vt 0.023324 0.017430
vt 0.691280 0.748886
vt 0.220777 0.013176
vn -0.1264 0.7922 -0.5970
vn -0.0229 0.9367 -0.3494
vn -0.0143 0.7812 -0.6241
vn -0.2047 0.8835 -0.4213
vn 0.4010 0.8521 -0.3363
vn 0.3390 0.9189 -0.2018
vn 0.5043 0.8455 -0.1755
vn 0.2079 0.9490 -0.2369
vn 0.2854 0.8751 -0.3908
vn 0.0215 0.9890 -0.1459
vn 0.1485 0.9841 -0.0971
vn -0.5046 0.8598 -0.0784
vn -0.4116 0.9103 0.0434
vn -0.3093 0.9350 -0.1733
vn -0.2784 0.9604 0.0046
vn 0.3140 0.9475 -0.0601
vn -0.0196 0.9977 0.0644
vn 0.2053 0.9746 0.0889
vn -0.1542 0.9845 -0.0832
vn 0.4408 0.8912 0.1070
vn -0.2331 0.9649 0.1204
vn -0.0125 0.9395 0.3423
vn -0.4578 0.8692 0.1869
vn -0.5912 0.7515 0.2928
vn -0.3958 0.8814 0.2578
vn 0.5311 0.8068 0.2589
vn 0.6076 0.7875 0.1034
vn 0.2656 0.9249 0.2720
vn 0.1816 0.8905 0.4172
vn 0.3985 0.8349 0.3796
vn -0.5686 0.7125 0.4110
vn -0.2547 0.8972 0.3608
vn 0.4047 0.5567 -0.7254
vn 0.3712 0.7574 -0.5371
vn 0.5382 0.6713 -0.5096
vn 0.1658 0.7995 -0.5773
vn 0.2360 0.6401 -0.7311
vn 0.0377 0.6451 -0.7632
vn -0.1498 0.6044 -0.7824
vn -0.2937 0.6380 -0.7118
vn -0.2692 0.7502 -0.6039
vn -0.5900 0.7968 0.1299
vn -0.5749 0.6299 0.5222
vn -0.2320 0.8085 0.5408
vn 0.0319 0.8299 0.5570
vn 0.1900 0.8134 0.5497
vn 0.7022 0.6500 0.2904
vn 0.8196 0.5469 0.1706
vn 0.7569 0.6437 0.1132
vn 0.6966 0.7111 -0.0949
vn 0.6538 0.6413 -0.4015
vn 0.7140 0.6258 -0.3138
vn 0.5061 -0.5376 0.6744
vn 0.4600 -0.3071 0.8331
vn 0.3165 -0.6311 0.7082
vn 0.2318 -0.1288 0.9642
vn 0.1366 -0.4511 0.8819
vn 0.6329 0.1399 0.7615
vn 0.3950 0.4458 0.8032
vn 0.4099 0.0877 0.9079
vn 0.7398 0.3828 0.5532
vn 0.5695 0.6130 0.5476
vn 0.1037 -0.8123 0.5739
vn -0.0919 -0.6682 0.7382
vn -0.1298 -0.8228 0.5532
vn 0.1239 -0.6689 0.7330
vn -0.0325 -0.1528 0.9877
vn -0.1010 -0.4912 0.8651
vn 0.1582 0.2567 0.9534
vn 0.2381 0.5265 0.8161
vn -0.2843 -0.7259 0.6262
vn -0.2847 -0.3767 0.8815
vn -0.2579 -0.5653 0.7835
vn -0.4477 -0.4794 0.7548
vn -0.4565 -0.6431 0.6147
vn -0.2501 0.2813 0.9264
vn -0.4580 0.3749 0.8060
vn -0.5087 0.1109 0.8538
vn -0.1777 0.5214 0.8346
vn -0.4583 -0.2061 0.8646
vn -0.5745 -0.1433 0.8058
vn -0.2890 0.6803 0.6735
vn -0.5857 -0.4096 0.6994
vn -0.6104 -0.5324 0.5864
vn -0.7117 -0.3452 0.6118
vn -0.6868 -0.1704 0.7066
vn -0.6768 0.1921 0.7107
vn 0.4776 -0.7477 0.4613
vn 0.3438 -0.7896 0.5082
vn 0.7456 -0.2013 0.6352
vn 0.8497 0.3924 0.3522
vn 0.3385 0.7114 0.6159
vn 0.0324 0.6474 0.7615
vn -0.0750 0.7481 0.6594
vn 0.1230 0.9075 -0.4015
vn -0.5589 0.5539 0.6171
vn -0.7875 0.0174 0.6160
vn -0.7919 -0.1725 0.5858
vn -0.7146 -0.4636 0.5237
vn -0.5058 -0.7353 0.4511
vn -0.1077 -0.8980 0.4266
vn 0.0804 -0.8835 0.4615
vn 0.3148 -0.8468 0.4287
vn 0.2611 -0.8781 0.4009
vn -0.7872 0.3748 0.4897
vn -0.8780 0.1583 0.4518
vn -0.7444 0.2677 0.6117
vn -0.7354 -0.4628 0.4949
vn -0.8686 -0.2868 0.4039
vn -0.7443 -0.5286 0.4082
vn -0.8295 -0.2706 0.4886
vn -0.8943 -0.1339 0.4270
vn -0.8668 -0.1424 0.4780
vn -0.8795 -0.0459 0.4735
vn -0.9081 -0.0586 0.4145
vn -0.7571 0.5159 0.4008
vn -0.8543 0.3493 0.3848
vn -0.9532 -0.2557 0.1611
vn -0.9275 -0.3641 0.0844
vn -0.9617 -0.1373 0.2373
vn -0.9677 0.0732 0.2410
vn -0.8108 0.5258 0.2573
vn -0.9179 0.3699 0.1436
vn -0.8789 -0.4573 -0.1358
vn -0.8663 -0.4590 0.1971
vn -0.6858 0.7276 0.0159
vn -0.8259 0.5550 -0.0989
vn -0.9886 -0.1477 -0.0279
vn -0.9574 -0.2641 -0.1163
vn -0.9845 0.0931 -0.1483
vn -0.8564 -0.5004 -0.1272
vn -0.9298 -0.2297 -0.2875
vn -0.8425 -0.3972 -0.3639
vn -0.7629 0.5204 -0.3834
vn -0.7799 0.2609 -0.5688
vn -0.9141 0.3276 -0.2391
vn -0.8337 -0.2246 0.5044
vn -0.8336 -0.0685 0.5481
vn -0.8384 0.1272 0.5300
vn -0.7465 0.6275 0.2212
vn -0.6050 0.7303 -0.3170
vn -0.8108 -0.1993 -0.5503
vn -0.8213 -0.5253 -0.2224
vn -0.7803 -0.3488 -0.5191
vn -0.7475 -0.6569 -0.0983
vn -0.7609 -0.6414 0.0977
vn -0.6926 -0.7165 0.0833
vn -0.6308 -0.6706 0.3904
vn -0.6051 -0.6401 0.4734
vn -0.5754 -0.6983 -0.4258
vn -0.4428 -0.8253 -0.3505
vn -0.5577 -0.8043 -0.2049
vn -0.3659 -0.9049 -0.2172
vn 0.4177 -0.7624 -0.4942
vn 0.1723 -0.9271 -0.3328
vn -0.0049 -0.8824 -0.4705
vn -0.3763 -0.9098 -0.1748
vn -0.3446 -0.9366 -0.0629
vn -0.5032 -0.8631 -0.0431
vn -0.1331 -0.9816 -0.1368
vn -0.1488 -0.9880 0.0415
vn -0.1050 -0.9384 -0.3290
vn 0.1597 -0.9811 -0.1086
vn 0.4130 -0.8595 -0.3012
vn -0.2618 -0.9384 0.2253
vn -0.3901 -0.9115 0.1304
vn -0.0694 -0.9884 0.1350
vn -0.2187 -0.9703 0.1035
vn 0.0953 -0.9935 0.0613
vn 0.2640 -0.9597 0.0956
vn 0.1437 -0.9718 0.1868
vn 0.4285 -0.8921 -0.1433
vn -0.3049 -0.8969 0.3203
vn -0.5068 -0.8338 0.2189
vn -0.4332 -0.8410 0.3242
vn -0.1903 -0.9581 0.2139
vn 0.4601 -0.8469 0.2666
vn 0.2778 -0.9141 0.2954
vn -0.2703 -0.8994 0.3435
vn -0.3805 -0.8245 0.4187
vn 0.1229 -0.9335 0.3368
vn -0.0571 -0.9236 0.3789
vn -0.1383 -0.9403 0.3108
vn 0.0161 -0.9851 0.1713
vn 0.4215 -0.8126 0.4025
vn 0.3162 -0.8703 0.3775
vn -0.2868 -0.8585 0.4252
vn 0.4668 -0.8131 0.3477
vn -0.7662 -0.5069 -0.3949
vn -0.6606 -0.6621 -0.3539
vn -0.4890 -0.7597 -0.4286
vn -0.2904 -0.8899 -0.3517
vn 0.6748 -0.6908 -0.2596
vn 0.5220 -0.8527 -0.0178
vn 0.6360 -0.6912 0.3430
vn 0.5246 -0.7999 0.2913
vn 0.4179 -0.8416 0.3421
vn -0.3542 -0.8418 0.4073
vn 0.7520 -0.5636 -0.3417
vn 0.7961 -0.5937 -0.1173
vn 0.7002 -0.5481 -0.4575
vn 0.7038 -0.2018 -0.6811
vn 0.8033 -0.1134 -0.5847
vn 0.8004 -0.3098 -0.5131
vn 0.8700 -0.0891 -0.4848
vn 0.8755 -0.2726 -0.3990
vn 0.7996 0.0270 -0.5999
vn 0.9005 -0.3439 -0.2660
vn 0.8792 -0.4356 -0.1926
vn 0.8615 -0.2440 -0.4452
vn 0.7196 0.1649 -0.6745
vn 0.7433 0.3900 -0.5435
vn 0.8805 0.1635 -0.4449
vn 0.8983 -0.4234 -0.1174
vn 0.8378 -0.5420 0.0655
vn 0.9348 -0.0438 -0.3525
vn 0.9251 -0.2119 -0.3150
vn 0.9450 -0.2901 -0.1509
vn 0.8653 0.3684 -0.3398
vn 0.9524 0.1744 -0.2499
vn 0.8330 -0.5496 0.0625
vn 0.7376 -0.6302 0.2424
vn 0.6472 -0.6962 0.3104
vn 0.9133 -0.4027 -0.0609
vn 0.8556 -0.4818 0.1891
vn 0.9936 -0.0018 -0.1130
vn 0.9732 -0.2219 0.0595
vn 0.6882 -0.6933 0.2137
vn 0.5513 -0.7761 0.3061
vn 0.6716 -0.7028 0.2347
vn 0.9167 0.3705 -0.1499
vn 0.8616 0.5075 -0.0024
vn 0.9597 0.2808 0.0057
vn 0.6577 -0.3611 -0.6610
vn 0.6046 -0.6478 -0.4634
vn 0.6079 -0.5188 -0.6010
vn 0.5538 0.2071 -0.8065
vn 0.6310 0.0152 -0.7756
vn 0.5523 0.3995 -0.7317
vn 0.8317 0.5365 -0.1431
vn 0.9730 0.1126 0.2013
vn 0.8846 0.0830 0.4588
vn 0.8521 -0.3179 0.4158
vn 0.6728 -0.5889 0.4477
vn 0.7314 -0.6748 0.0979
vn -0.6902 -0.4787 -0.5426
vn -0.6779 -0.2553 -0.6893
vn -0.6403 -0.5039 -0.5798
vn -0.6975 -0.0983 -0.7097
vn -0.6077 0.1224 -0.7847
vn -0.5758 0.0190 -0.8173
vn -0.4638 0.2922 -0.8364
vn -0.4624 0.1784 -0.8685
vn -0.6232 -0.1646 -0.7645
vn -0.2972 0.4058 -0.8643
vn -0.3396 0.3046 -0.8899
vn -0.3353 0.0381 -0.9413
vn -0.1750 0.2635 -0.9486
vn -0.1414 0.3484 -0.9266
vn -0.2611 0.5271 -0.8087
vn -0.1613 0.4057 -0.8996
vn -0.4093 -0.2439 -0.8791
vn -0.0044 -0.5619 -0.8272
vn -0.5461 -0.4639 -0.6975
vn 0.0773 -0.0077 -0.9969
vn 0.0673 0.2777 -0.9583
vn -0.0065 0.5104 -0.8599
vn 0.0999 0.3402 -0.9350
vn 0.4304 -0.2829 -0.8571
vn 0.1357 -0.3070 -0.9420
vn 0.2972 0.0513 -0.9534
vn 0.3333 0.1313 -0.9336
vn 0.5549 -0.1897 -0.8099
vn 0.5404 -0.0279 -0.8409
vn 0.3641 0.2841 -0.8869
vn 0.1831 0.4924 -0.8509
vn -0.7029 0.0785 -0.7069
vn -0.5784 0.5559 -0.5969
vn -0.5566 0.3190 -0.7671
vn -0.4123 0.6528 -0.6355
vn -0.4169 0.4677 -0.7794
vn 0.5536 -0.4003 -0.7302
vn 0.3303 -0.6439 -0.6901
vn 0.5062 -0.6259 -0.5932
vn 0.2811 -0.7819 -0.5564
vn -0.0953 -0.7806 -0.6176
vn -0.3866 0.8353 -0.3910
vn -0.1690 0.9572 -0.2347
vn -0.6506 0.7518 0.1074
vn -0.2516 -0.0955 0.9631
vn -0.0196 0.2843 0.9585
vn -0.8721 -0.0132 -0.4891
vn -0.4520 -0.7100 -0.5400
vn 0.6373 -0.1595 -0.7539
usemtl ROCK_LOW_POLY
s 1
f 111/1/1 113/2/2 110/3/3
f 114/4/4 113/2/2 111/1/1
f 40/5/5 120/6/6 136/7/7
f 118/8/8 120/6/6 112/9/9
f 43/10/10 42/11/11 118/8/8
f 133/12/12 121/13/13 117/14/14
f 121/13/13 123/15/15 117/14/14
f 120/6/6 122/16/16 136/7/7
f 42/11/11 124/17/17 127/18/18
f 43/10/10 119/19/19 124/17/17
f 122/16/16 126/20/20 136/7/7
f 122/16/16 127/18/18 126/20/20
f 124/17/17 44/21/21 45/22/22
f 124/17/17 45/22/22 127/18/18
f 123/15/15 125/23/23 44/21/21
f 125/23/23 103/24/24 128/25/25
f 126/20/20 135/26/26 129/27/27
f 130/28/28 134/29/29 21/30/30
f 130/28/28 45/22/22 134/29/29
f 127/18/18 45/22/22 130/28/28
f 128/25/25 102/31/31 131/32/32
f 1/33/33 138/34/34 137/35/35
f 109/36/36 138/34/34 35/37/37
f 34/38/38 109/39/36 35/40/37
f 287/41/39 33/42/40 111/1/1
f 33/42/40 39/43/41 111/1/1
f 121/13/13 31/44/42 125/23/23
f 102/31/31 91/45/43 22/46/44
f 134/29/29 99/47/45 163/48/46
f 20/49/47 2/50/48 100/51/49
f 25/52/50 129/27/27 100/51/49
f 137/35/35 40/5/5 136/7/7
f 23/53/51 136/7/7 24/54/52
f 160/55/53 47/56/54 46/57/55
f 47/56/54 141/58/56 50/59/57
f 140/60/58 51/61/59 142/62/60
f 48/63/61 162/64/62 140/60/58
f 49/65/63 52/66/64 28/67/65
f 46/57/55 50/59/57 293/68/66
f 50/59/57 54/69/67 53/70/68
f 141/58/56 144/71/69 54/69/67
f 51/61/59 145/72/70 144/73/69
f 52/66/64 56/74/71 28/67/65
f 53/70/68 147/75/72 57/76/73
f 152/77/74 166/78/75 56/74/71
f 57/76/73 147/75/72 152/77/74
f 150/79/76 60/80/77 58/81/78
f 150/79/76 149/82/79 60/80/77
f 153/83/80 58/81/78 154/84/81
f 164/85/82 60/80/77 149/82/79
f 166/78/75 59/86/83 156/87/84
f 59/86/83 157/88/85 156/87/84
f 59/86/83 155/89/86 157/88/85
f 60/80/77 158/90/87 58/81/78
f 15/91/88 46/92/55 159/93/89
f 161/94/90 140/95/58 47/96/54
f 92/97/91 20/49/47 48/63/61
f 162/64/62 21/30/30 143/98/92
f 143/98/92 163/48/46 55/99/93
f 99/47/45 151/100/94 163/48/46
f 115/101/95 109/36/36 110/102/3 113/103/2
f 164/85/82 165/104/96 60/80/77
f 22/105/44 165/104/96 164/85/82
f 155/89/86 14/106/97 13/107/98
f 156/87/84 157/88/85 12/108/99
f 166/78/75 156/87/84 26/109/100
f 166/110/75 26/111/100 56/112/71
f 28/113/65 101/114/101 29/115/102
f 139/116/103 49/117/63 30/118/104
f 61/119/105 63/120/106 90/121/107
f 188/122/108 172/123/109 171/124/110
f 168/125/111 176/126/112 172/123/109
f 168/125/111 174/127/113 176/126/112
f 62/128/114 63/120/106 64/129/115
f 170/130/116 175/131/117 63/120/106
f 177/132/118 65/133/119 172/123/109
f 174/127/113 64/129/115 176/126/112
f 64/129/115 178/134/120 176/126/112
f 63/120/106 179/135/121 64/129/115
f 179/135/121 178/134/120 64/129/115
f 175/131/117 179/135/121 63/120/106
f 180/136/122 66/137/123 175/131/117
f 65/138/119 181/139/124 173/140/125
f 180/141/122 104/142/126 183/143/127
f 182/144/128 184/145/129 177/146/118
f 66/137/123 67/147/130 179/135/121
f 192/148/131 187/149/132 19/150/133
f 184/145/129 187/149/132 181/139/124
f 67/151/130 187/149/132 184/145/129
f 186/152/134 97/153/135 185/154/136
f 12/108/99 169/155/137 168/125/111
f 13/107/98 189/156/138 169/155/137
f 14/106/97 90/121/107 167/157/139
f 165/104/96 61/119/105 90/121/107
f 91/158/43 61/119/105 165/104/96
f 102/159/31 170/130/116 91/158/43
f 91/158/43 170/130/116 61/119/105
f 170/130/116 190/160/140 175/131/117
f 170/130/116 103/161/24 190/160/140
f 175/131/117 190/160/140 180/136/122
f 105/162/141 186/152/134 183/163/127
f 187/149/132 18/164/142 19/150/133
f 3/165/143 19/150/133 286/166/144
f 192/148/131 3/165/143 226/167/145
f 193/168/146 181/139/124 225/169/147
f 181/139/124 192/148/131 225/169/147
f 225/169/147 192/148/131 226/167/145
f 4/170/148 193/168/146 225/169/147
f 5/171/149 188/122/108 4/172/148
f 9/173/150 194/174/151 198/175/152
f 194/174/151 200/176/153 198/175/152
f 38/177/154 197/178/155 195/179/156
f 199/180/157 69/181/158 68/182/159
f 198/175/152 200/176/153 199/180/157
f 202/183/160 201/184/161 200/176/153
f 200/176/153 201/184/161 69/181/158
f 197/178/155 202/183/160 196/185/162
f 197/178/155 70/186/163 202/183/160
f 221/187/164 70/186/163 197/178/155
f 69/181/158 211/188/165 71/189/166
f 201/184/161 205/190/167 203/191/168
f 204/192/169 205/190/167 201/184/161
f 207/193/170 206/194/171 204/192/169
f 222/195/172 207/193/170 70/186/163
f 71/189/166 210/196/173 208/197/174
f 210/196/173 72/198/175 208/197/174
f 205/190/167 209/199/176 203/191/168
f 36/200/177 73/201/178 207/193/170
f 209/199/176 215/202/179 211/188/165
f 215/202/179 216/203/180 210/196/173
f 213/204/181 218/205/182 74/206/183
f 206/194/171 213/204/181 212/207/184
f 73/201/178 213/204/181 206/194/171
f 214/208/185 75/209/186 73/210/178
f 74/206/183 218/205/182 27/211/187
f 224/212/188 30/213/104 75/209/186
f 292/214/189 227/215/190 3/165/143
f 8/216/191 219/217/192 194/174/151
f 37/218/193 222/219/172 221/220/164
f 107/221/194 36/222/177 207/223/170
f 36/222/177 214/208/185 73/210/178
f 223/224/195 224/212/188 214/208/185
f 106/225/196 16/226/197 224/212/188
f 16/226/197 139/227/103 30/213/104
f 218/205/182 29/115/102 101/114/101
f 101/114/101 28/113/65 27/211/187
f 217/228/198 27/211/187 26/111/100
f 217/228/198 26/111/100 5/229/149
f 72/198/175 216/203/180 4/170/148
f 226/167/145 68/182/159 225/169/147
f 68/182/159 71/189/166 225/169/147
f 198/175/152 226/167/145 3/165/143
f 231/230/199 76/231/200 230/232/201
f 228/233/202 256/234/203 232/235/204
f 256/234/203 237/236/205 77/237/206
f 256/234/203 233/238/207 237/236/205
f 231/230/199 239/239/208 235/240/209
f 77/237/206 237/236/205 236/241/210
f 229/242/211 234/243/212 78/244/213
f 80/245/214 79/246/215 76/231/200
f 236/241/210 246/247/216 241/248/217
f 239/239/208 241/248/217 245/249/218
f 237/236/205 78/244/213 246/247/216
f 78/244/213 240/250/219 242/251/220
f 80/245/214 244/252/221 79/246/215
f 244/252/221 243/253/222 79/246/215
f 80/245/214 245/249/218 244/252/221
f 243/253/222 261/254/223 223/224/195
f 244/252/221 247/255/224 259/256/225
f 245/249/218 250/257/226 251/258/227
f 246/247/216 242/251/220 250/257/226
f 249/259/228 96/260/229 261/254/223
f 244/252/221 259/256/225 260/261/230
f 247/255/224 251/258/227 259/256/225
f 248/262/231 252/263/232 253/264/233
f 255/265/234 230/232/201 108/266/235
f 255/265/234 108/266/235 254/267/236
f 255/265/234 228/233/202 232/235/204
f 255/265/234 232/235/204 230/232/201
f 11/268/237 229/242/211 294/269/238
f 294/269/238 229/242/211 233/238/207
f 11/268/237 10/270/239 229/242/211
f 10/271/239 137/35/35 234/272/212
f 240/250/219 257/273/240 248/274/231
f 252/263/232 100/51/49 2/50/48
f 253/264/233 2/50/48 92/97/91
f 258/275/241 92/97/91 93/276/242
f 251/258/227 258/277/241 94/278/243
f 259/256/225 94/278/243 95/279/244
f 260/261/230 95/279/244 15/91/88
f 249/259/228 260/261/230 96/260/229
f 261/254/223 224/212/188 223/224/195
f 238/280/245 223/224/195 36/222/177
f 76/231/200 238/280/245 107/221/194
f 238/280/245 36/222/177 107/221/194
f 37/218/193 107/221/194 222/219/172
f 230/232/201 37/218/193 108/266/235
f 81/281/246 266/282/247 291/283/248
f 286/284/144 262/285/249 266/286/247
f 262/285/249 263/287/250 270/288/251
f 263/287/250 268/289/252 267/290/253
f 266/286/247 270/288/251 269/291/254
f 268/289/252 82/292/255 271/293/256
f 270/288/251 267/290/253 84/294/257
f 267/290/253 271/293/256 85/295/258
f 271/293/256 274/296/259 85/295/258
f 83/297/260 275/298/261 82/292/255
f 287/41/39 275/298/261 83/297/260
f 273/299/262 276/300/263 272/301/264
f 85/295/258 86/302/265 84/294/257
f 274/296/259 87/303/266 85/295/258
f 278/304/267 279/305/268 275/298/261
f 86/302/265 280/306/269 277/307/270
f 87/303/266 281/308/271 86/302/265
f 281/308/271 280/306/269 86/302/265
f 279/305/268 282/309/272 87/303/266
f 281/310/271 283/311/273 280/312/269
f 282/313/272 284/314/274 281/310/271
f 285/315/275 284/316/274 282/309/272
f 88/317/276 285/315/275 279/305/268
f 19/150/133 18/164/142 286/166/144
f 18/318/142 98/319/277 262/285/249
f 17/320/278 264/321/279 97/153/135
f 132/322/280 265/323/281 17/320/278
f 33/42/40 83/297/260 265/323/281
f 33/42/40 287/41/39 83/297/260
f 287/41/39 34/38/38 278/304/267
f 285/315/275 10/324/239 11/325/237
f 283/311/273 255/265/234 289/326/282
f 283/311/273 289/326/282 280/312/269
f 6/327/283 89/328/284 220/329/285
f 290/330/286 276/300/263 6/331/283
f 291/283/248 8/216/191 9/173/150
f 138/34/34 109/36/36 112/9/9
f 138/34/34 112/9/9 40/5/5
f 109/36/36 115/101/95 112/9/9
f 118/8/8 115/101/95 113/103/2 43/10/10
f 39/43/41 114/4/4 111/1/1
f 39/43/41 41/332/287 114/4/4
f 132/322/280 105/162/141 41/332/287
f 112/9/9 115/101/95 118/8/8
f 116/333/288 114/4/4 41/332/287 117/334/14
f 114/335/4 116/336/288 113/103/2
f 119/19/19 43/10/10 113/103/2 116/336/288
f 41/332/287 133/337/12 117/334/14
f 40/5/5 112/9/9 120/6/6
f 118/8/8 42/11/11 122/16/16
f 120/6/6 118/8/8 122/16/16
f 21/30/30 135/26/26 126/20/20 130/28/28
f 116/336/288 117/14/14 123/15/15
f 119/19/19 116/336/288 123/15/15
f 122/16/16 42/11/11 127/18/18
f 42/11/11 43/10/10 124/17/17
f 124/17/17 119/19/19 44/21/21
f 119/19/19 123/15/15 44/21/21
f 123/15/15 121/13/13 125/23/23
f 136/7/7 126/20/20 129/27/27
f 44/21/21 125/23/23 128/25/25
f 129/27/27 135/26/26 20/49/47
f 126/20/20 127/18/18 130/28/28
f 41/332/287 39/43/41 33/42/40 132/322/280
f 45/22/22 44/21/21 131/32/32
f 44/21/21 128/25/25 131/32/32
f 128/25/25 103/24/24 102/31/31
f 1/338/33 35/40/37 138/339/34
f 34/38/38 110/3/3 109/39/36
f 287/41/39 111/1/1 110/3/3
f 32/340/289 121/13/13 133/12/12 104/341/126
f 105/162/141 133/337/12 41/332/287
f 105/162/141 104/342/126 133/337/12
f 22/46/44 99/47/45 45/22/22 131/32/32
f 121/343/13 32/344/289 31/345/42
f 125/23/23 31/44/42 103/24/24
f 131/32/32 102/31/31 22/46/44
f 22/46/44 91/45/43 165/346/96
f 293/347/66 49/348/63 159/93/89 46/92/55
f 134/29/29 45/22/22 99/47/45
f 21/30/30 134/29/29 163/48/46
f 135/26/26 21/30/30 20/49/47
f 129/27/27 20/49/47 100/51/49
f 25/52/50 136/7/7 129/27/27
f 24/54/52 136/7/7 25/52/50
f 23/53/51 137/35/35 136/7/7
f 137/35/35 138/34/34 40/5/5
f 53/70/68 52/66/64 293/68/66 50/59/57
f 139/116/103 159/349/89 49/117/63
f 46/57/55 47/56/54 50/59/57
f 47/56/54 140/350/58 142/351/60
f 47/56/54 142/351/60 141/58/56
f 48/63/61 20/49/47 162/64/62
f 140/60/58 162/64/62 51/61/59
f 49/65/63 293/68/66 52/66/64
f 143/98/92 145/72/70 51/61/59 162/64/62
f 50/59/57 141/58/56 54/69/67
f 141/58/56 142/351/60 144/71/69
f 142/351/60 51/352/59 144/71/69
f 150/79/76 148/353/290 54/69/67 146/354/291
f 145/72/70 143/98/92 55/99/93
f 52/66/64 57/76/73 56/74/71
f 52/66/64 53/70/68 57/76/73
f 53/70/68 54/69/67 148/353/290
f 53/70/68 148/353/290 147/75/72
f 54/69/67 144/71/69 146/354/291
f 55/355/93 146/354/291 144/71/69 145/356/70
f 149/82/79 150/79/76 146/354/291 55/355/93
f 154/84/81 59/86/83 152/77/74 153/83/80
f 57/76/73 152/77/74 56/74/71
f 152/77/74 147/75/72 153/83/80
f 147/75/72 148/353/290 153/83/80
f 153/83/80 148/353/290 58/81/78
f 148/353/290 150/79/76 58/81/78
f 149/357/79 55/99/93 151/100/94
f 151/100/94 164/358/82 149/357/79
f 166/78/75 152/77/74 59/86/83
f 15/91/88 159/93/89 16/226/197 96/260/229
f 59/86/83 154/84/81 155/89/86
f 154/84/81 58/81/78 158/90/87
f 155/89/86 154/84/81 158/90/87
f 60/80/77 90/121/107 158/90/87
f 60/80/77 165/104/96 90/121/107
f 16/226/197 159/93/89 139/227/103
f 161/94/90 160/359/53 95/279/244 94/278/243
f 15/91/88 95/279/244 160/359/53
f 15/91/88 160/359/53 46/92/55
f 48/63/61 140/60/58 93/276/242 92/97/91
f 160/359/53 161/94/90 47/96/54
f 94/278/243 93/360/242 161/94/90
f 164/358/82 151/100/94 99/47/45 22/46/44
f 161/94/90 93/360/242 140/95/58
f 92/97/91 2/50/48 20/49/47
f 162/64/62 20/49/47 21/30/30
f 143/98/92 21/30/30 163/48/46
f 163/48/46 151/100/94 55/99/93
f 12/108/99 5/171/149 26/109/100 156/87/84
f 158/90/87 90/121/107 14/106/97
f 155/89/86 158/90/87 14/106/97
f 157/88/85 155/89/86 13/107/98
f 64/129/115 174/127/113 169/155/137 62/128/114
f 28/113/65 56/112/71 27/211/187
f 30/118/104 49/117/63 29/115/102
f 49/117/63 28/113/65 29/115/102
f 168/125/111 169/155/137 174/127/113
f 169/155/137 189/156/138 62/128/114
f 189/156/138 167/157/139 62/128/114
f 62/128/114 167/157/139 63/120/106
f 167/157/139 90/121/107 63/120/106
f 61/119/105 170/130/116 63/120/106
f 188/122/108 168/125/111 172/123/109
f 171/124/110 172/123/109 173/361/125
f 181/139/124 65/138/119 177/146/118 184/145/129
f 173/361/125 172/123/109 65/133/119
f 172/123/109 176/126/112 177/132/118
f 176/126/112 178/134/120 177/132/118
f 175/131/117 66/137/123 179/135/121
f 193/168/146 173/140/125 181/139/124
f 178/134/120 179/135/121 182/362/128
f 178/134/120 182/362/128 177/132/118
f 180/363/122 183/163/127 66/364/123
f 97/153/135 191/365/292 67/366/130 185/154/136
f 182/144/128 67/151/130 184/145/129
f 179/135/121 67/147/130 182/362/128
f 66/364/123 185/154/136 67/366/130
f 66/364/123 183/163/127 185/154/136
f 181/139/124 187/149/132 192/148/131
f 3/165/143 192/148/131 19/150/133
f 187/367/132 67/366/130 191/365/292
f 167/157/139 189/156/138 13/107/98 14/106/97
f 183/163/127 186/152/134 185/154/136
f 5/171/149 12/108/99 188/122/108
f 188/122/108 12/108/99 168/125/111
f 12/108/99 157/88/85 169/155/137
f 157/88/85 13/107/98 169/155/137
f 202/183/160 200/176/153 219/217/192 196/185/162
f 102/159/31 103/161/24 170/130/116
f 190/160/140 103/161/24 31/368/42
f 190/369/140 31/345/42 32/344/289
f 180/370/122 190/369/140 32/344/289
f 180/141/122 32/371/289 104/142/126
f 183/163/127 104/342/126 105/162/141
f 105/162/141 17/320/278 186/152/134
f 105/162/141 132/322/280 17/320/278
f 186/152/134 17/320/278 97/153/135
f 191/365/292 97/153/135 98/319/277
f 18/318/142 187/367/132 191/365/292
f 18/318/142 191/365/292 98/319/277
f 292/214/189 3/165/143 286/166/144
f 193/168/146 171/372/110 173/140/125
f 4/172/148 188/122/108 171/124/110
f 4/170/148 171/372/110 193/168/146
f 227/215/190 9/173/150 198/175/152
f 194/174/151 219/217/192 200/176/153
f 219/217/192 195/179/156 196/185/162
f 195/179/156 197/178/155 196/185/162
f 38/373/154 221/220/164 197/374/155
f 198/175/152 199/180/157 68/182/159
f 199/180/157 200/176/153 69/181/158
f 201/184/161 202/183/160 70/186/163 204/192/169
f 221/187/164 222/195/172 70/186/163
f 68/182/159 69/181/158 71/189/166
f 69/181/158 203/191/168 211/188/165
f 69/181/158 201/184/161 203/191/168
f 217/228/198 215/202/179 74/206/183 27/211/187
f 70/186/163 207/193/170 204/192/169
f 204/192/169 206/194/171 205/190/167
f 71/189/166 211/188/165 210/196/173
f 203/191/168 209/199/176 211/188/165
f 205/190/167 212/207/184 209/199/176
f 212/207/184 74/206/183 209/199/176
f 205/190/167 206/194/171 212/207/184
f 207/193/170 73/201/178 206/194/171
f 210/196/173 216/203/180 72/198/175
f 211/188/165 215/202/179 210/196/173
f 209/199/176 74/206/183 215/202/179
f 212/207/184 213/204/181 74/206/183
f 73/201/178 75/375/186 213/204/181
f 216/203/180 217/228/198 5/229/149
f 215/202/179 217/228/198 216/203/180
f 195/179/156 219/217/192 7/376/293 290/330/286
f 218/205/182 213/204/181 29/115/102
f 214/208/185 224/212/188 75/209/186
f 9/173/150 8/216/191 194/174/151
f 8/216/191 7/376/293 219/217/192
f 30/118/104 29/115/102 213/204/181 75/375/186
f 6/331/283 220/377/285 195/179/156
f 89/328/284 38/373/154 220/329/285
f 220/377/285 38/177/154 195/179/156
f 38/373/154 108/266/235 221/220/164
f 108/266/235 37/218/193 221/220/164
f 222/219/172 107/221/194 207/223/170
f 36/222/177 223/224/195 214/208/185
f 224/212/188 16/226/197 30/213/104
f 72/198/175 4/170/148 225/169/147 208/197/174
f 27/211/187 218/205/182 101/114/101
f 26/111/100 27/211/187 56/112/71
f 4/170/148 216/203/180 5/229/149
f 225/169/147 71/189/166 208/197/174
f 241/248/217 239/239/208 77/237/206 236/241/210
f 226/167/145 198/175/152 68/182/159
f 3/165/143 227/215/190 198/175/152
f 230/232/201 76/231/200 37/218/193
f 230/232/201 232/235/204 231/230/199
f 231/230/199 232/235/204 77/237/206
f 232/235/204 256/234/203 77/237/206
f 228/233/202 294/269/238 256/234/203
f 229/242/211 10/270/239 234/243/212
f 231/230/199 235/240/209 76/231/200
f 231/230/199 77/237/206 239/239/208
f 237/236/205 233/238/207 78/244/213
f 233/238/207 229/242/211 78/244/213
f 76/231/200 79/246/215 238/280/245
f 235/240/209 80/245/214 76/231/200
f 235/240/209 239/239/208 80/245/214
f 80/245/214 239/239/208 245/249/218
f 294/269/238 228/233/202 288/378/294
f 236/241/210 237/236/205 246/247/216
f 246/247/216 78/244/213 242/251/220
f 78/244/213 234/243/212 240/250/219
f 238/280/245 79/246/215 223/224/195
f 79/246/215 243/253/222 223/224/195
f 242/251/220 240/250/219 248/274/231
f 243/253/222 244/252/221 249/259/228
f 243/253/222 249/259/228 261/254/223
f 244/252/221 245/249/218 247/255/224
f 245/249/218 241/248/217 250/257/226
f 247/255/224 245/249/218 251/258/227
f 241/248/217 246/247/216 250/257/226
f 244/252/221 260/261/230 249/259/228
f 260/261/230 259/256/225 95/279/244
f 250/257/226 242/251/220 253/379/233
f 250/257/226 253/379/233 258/277/241
f 242/251/220 248/274/231 253/379/233
f 89/328/284 254/267/236 38/373/154
f 254/267/236 108/266/235 38/373/154
f 24/54/52 240/380/219 234/272/212 23/53/51
f 256/234/203 294/269/238 233/238/207
f 10/271/239 1/33/33 137/35/35
f 234/272/212 137/35/35 23/53/51
f 100/51/49 252/263/232 257/381/240 25/52/50
f 240/380/219 24/54/52 257/381/240
f 257/381/240 24/54/52 25/52/50
f 248/262/231 257/381/240 252/263/232
f 272/382/264 291/383/248 269/291/254 273/384/262
f 253/264/233 252/263/232 2/50/48
f 258/275/241 253/264/233 92/97/91
f 251/258/227 250/257/226 258/277/241
f 259/256/225 251/258/227 94/278/243
f 94/278/243 258/277/241 93/360/242
f 96/260/229 260/261/230 15/91/88
f 106/225/196 96/260/229 16/226/197
f 261/254/223 106/225/196 224/212/188
f 261/254/223 96/260/229 106/225/196
f 37/218/193 76/231/200 107/221/194
f 81/281/246 286/166/144 266/282/247
f 266/286/247 262/285/249 270/288/251
f 270/288/251 263/287/250 267/290/253
f 263/287/250 264/321/279 268/289/252
f 265/323/281 83/297/260 82/292/255
f 291/283/248 266/282/247 269/385/254
f 267/290/253 268/289/252 271/293/256
f 265/323/281 82/292/255 268/289/252
f 84/294/257 273/384/262 269/291/254 270/288/251
f 277/307/270 273/384/262 84/294/257 86/302/265
f 84/294/257 267/290/253 85/295/258
f 271/293/256 82/292/255 274/296/259
f 82/292/255 275/298/261 274/296/259
f 6/327/283 276/386/263 277/387/270 280/312/269
f 273/384/262 277/307/270 276/388/263
f 85/295/258 87/303/266 86/302/265
f 275/298/261 279/305/268 274/296/259
f 275/298/261 287/41/39 278/304/267
f 35/40/37 88/317/276 278/304/267 34/38/38
f 87/303/266 282/309/272 281/308/271
f 274/296/259 279/305/268 87/303/266
f 279/305/268 278/304/267 88/317/276
f 281/310/271 284/314/274 283/311/273
f 279/305/268 285/315/275 282/309/272
f 285/315/275 88/317/276 1/338/33
f 292/214/189 286/166/144 81/281/246
f 286/284/144 18/318/142 262/285/249
f 262/285/249 98/319/277 263/287/250
f 97/153/135 264/321/279 98/319/277
f 263/287/250 98/319/277 264/321/279
f 264/321/279 265/323/281 268/289/252
f 17/320/278 265/323/281 264/321/279
f 132/322/280 33/42/40 265/323/281
f 287/41/39 110/3/3 34/38/38
f 294/269/238 284/314/274 285/389/275 11/268/237
f 88/317/276 35/40/37 1/338/33
f 285/315/275 1/338/33 10/324/239
f 255/265/234 283/311/273 288/378/294 228/233/202
f 284/314/274 294/269/238 288/378/294
f 284/314/274 288/378/294 283/311/273
f 290/330/286 7/376/293 272/301/264 276/300/263
f 6/327/283 280/312/269 289/326/282
f 289/326/282 255/265/234 254/267/236
f 89/328/284 6/327/283 289/326/282
f 89/328/284 289/326/282 254/267/236
f 195/179/156 290/330/286 6/331/283
f 9/173/150 227/215/190 81/281/246 291/283/248
f 291/283/248 272/301/264 7/376/293
f 291/283/248 7/376/293 8/216/191
f 227/215/190 292/214/189 81/281/246
